{
	"asset":{
		"generator":"Khronos glTF Blender I/O v4.3.47",
		"version":"2.0"
	},
	"extensionsUsed":[
		"KHR_materials_specular",
		"KHR_materials_ior"
	],
	"scene":0,
	"scenes":[
		{
			"name":"Scene",
			"nodes":[
				0
			]
		}
	],
	"nodes":[
		{
			"mesh":0,
			"name":"Cylinder.023",
			"rotation":[
				-0.707103431224823,
				0.0021498785354197025,
				0.0021498780697584152,
				0.7071035504341125
			],
			"scale":[
				39.58982467651367,
				101.07536315917969,
				39.58315658569336
			],
			"translation":[
				1177.525146484375,
				178.93722534179688,
				1.0337777137756348
			]
		}
	],
	"materials":[
		{
			"doubleSided":true,
			"extensions":{
				"KHR_materials_specular":{
					"specularFactor":0
				},
				"KHR_materials_ior":{
					"ior":1.4500000476837158
				}
			},
			"name":"Bridge_Stone.003",
			"pbrMetallicRoughness":{
				"baseColorTexture":{
					"index":0
				},
				"metallicFactor":0,
				"roughnessFactor":0.5
			}
		},
		{
			"doubleSided":true,
			"extensions":{
				"KHR_materials_specular":{
					"specularColorFactor":[
						2.0,
						2.0,
						2.0
					]
				},
				"KHR_materials_ior":{
					"ior":1.4500000476837158
				}
			},
			"name":"High Bridge",
			"normalTexture":{
				"index":1
			},
			"pbrMetallicRoughness":{
				"baseColorTexture":{
					"index":2
				},
				"metallicFactor":0,
				"metallicRoughnessTexture":{
					"index":3
				}
			}
		},
		{
			"alphaMode":"BLEND",
			"doubleSided":true,
			"extensions":{
				"KHR_materials_specular":{
					"specularColorFactor":[
						2.0,
						2.0,
						2.0
					]
				},
				"KHR_materials_ior":{
					"ior":1.4500000476837158
				}
			},
			"name":"highway railing trim transparent",
			"normalTexture":{
				"index":4
			},
			"pbrMetallicRoughness":{
				"baseColorTexture":{
					"index":5
				},
				"metallicFactor":0,
				"metallicRoughnessTexture":{
					"index":6
				}
			}
		},
		{
			"doubleSided":true,
			"extensions":{
				"KHR_materials_specular":{
					"specularFactor":0
				},
				"KHR_materials_ior":{
					"ior":1.4500000476837158
				}
			},
			"name":"lotta walls",
			"pbrMetallicRoughness":{
				"baseColorTexture":{
					"index":7
				},
				"metallicFactor":0,
				"roughnessFactor":0.5
			}
		},
		{
			"doubleSided":true,
			"extensions":{
				"KHR_materials_specular":{
					"specularFactor":0
				},
				"KHR_materials_ior":{
					"ior":1.4500000476837158
				}
			},
			"name":"Bricks",
			"pbrMetallicRoughness":{
				"baseColorTexture":{
					"index":8
				},
				"metallicFactor":0,
				"roughnessFactor":0.5
			}
		},
		{
			"doubleSided":true,
			"extensions":{
				"KHR_materials_specular":{
					"specularFactor":0
				},
				"KHR_materials_ior":{
					"ior":1.4500000476837158
				}
			},
			"name":"Bridge_Stone.002",
			"pbrMetallicRoughness":{
				"baseColorTexture":{
					"index":9
				},
				"metallicFactor":0,
				"roughnessFactor":0.5
			}
		}
	],
	"meshes":[
		{
			"name":"Cylinder.037",
			"primitives":[
				{
					"attributes":{
						"POSITION":0,
						"NORMAL":1,
						"TEXCOORD_0":2
					},
					"indices":3,
					"material":0
				},
				{
					"attributes":{
						"POSITION":4,
						"NORMAL":5,
						"TEXCOORD_0":6
					},
					"indices":7,
					"material":1
				},
				{
					"attributes":{
						"POSITION":8,
						"NORMAL":9,
						"TEXCOORD_0":10
					},
					"indices":11,
					"material":2
				},
				{
					"attributes":{
						"POSITION":12,
						"NORMAL":13,
						"TEXCOORD_0":14
					},
					"indices":15,
					"material":3
				},
				{
					"attributes":{
						"POSITION":16,
						"NORMAL":17,
						"TEXCOORD_0":18
					},
					"indices":19,
					"material":4
				},
				{
					"attributes":{
						"POSITION":20,
						"NORMAL":21,
						"TEXCOORD_0":22
					},
					"indices":23,
					"material":5
				}
			]
		}
	],
	"textures":[
		{
			"sampler":0,
			"source":0
		},
		{
			"sampler":0,
			"source":1
		},
		{
			"sampler":0,
			"source":2
		},
		{
			"sampler":0,
			"source":3
		},
		{
			"sampler":0,
			"source":4
		},
		{
			"sampler":0,
			"source":5
		},
		{
			"sampler":0,
			"source":6
		},
		{
			"sampler":0,
			"source":7
		},
		{
			"sampler":0,
			"source":0
		},
		{
			"sampler":0,
			"source":0
		}
	],
	"images":[
		{
			"mimeType":"image/png",
			"name":"Bricks",
			"uri":"textures/Bricks.png"
		},
		{
			"mimeType":"image/jpeg",
			"name":"High Bridge_Normal",
			"uri":"textures/High%20Bridge_Normal.jpg"
		},
		{
			"mimeType":"image/jpeg",
			"name":"High Bridge_Diffuse",
			"uri":"textures/High%20Bridge_Diffuse.jpg"
		},
		{
			"mimeType":"image/png",
			"name":"High Bridge_Roughness",
			"uri":"textures/High%20Bridge_Roughness.png"
		},
		{
			"mimeType":"image/png",
			"name":"Bridge_structure_Normal",
			"uri":"textures/Bridge_structure_Normal.png"
		},
		{
			"mimeType":"image/png",
			"name":"Bridge structure_Diffuse",
			"uri":"textures/Bridge%20structure_Diffuse.png"
		},
		{
			"mimeType":"image/png",
			"name":"Bridge structure_Roughness",
			"uri":"textures/Bridge%20structure_Roughness.png"
		},
		{
			"mimeType":"image/jpeg",
			"name":"Brick Trims",
			"uri":"textures/Brick%20Trims.jpg"
		}
	],
	"accessors":[
		{
			"bufferView":0,
			"componentType":5126,
			"count":793,
			"max":[
				-10.944625854492188,
				1.5115313529968262,
				1.4217315912246704
			],
			"min":[
				-44.19573974609375,
				-1.4164708852767944,
				-4.212637424468994
			],
			"type":"VEC3"
		},
		{
			"bufferView":1,
			"componentType":5126,
			"count":793,
			"type":"VEC3"
		},
		{
			"bufferView":2,
			"componentType":5126,
			"count":793,
			"type":"VEC2"
		},
		{
			"bufferView":3,
			"componentType":5123,
			"count":1587,
			"type":"SCALAR"
		},
		{
			"bufferView":4,
			"componentType":5126,
			"count":3526,
			"max":[
				-18.229202270507812,
				1.3422038555145264,
				1.3741048574447632
			],
			"min":[
				-41.67561340332031,
				-1.197152853012085,
				-4.212937355041504
			],
			"type":"VEC3"
		},
		{
			"bufferView":5,
			"componentType":5126,
			"count":3526,
			"type":"VEC3"
		},
		{
			"bufferView":6,
			"componentType":5126,
			"count":3526,
			"type":"VEC2"
		},
		{
			"bufferView":7,
			"componentType":5123,
			"count":8832,
			"type":"SCALAR"
		},
		{
			"bufferView":8,
			"componentType":5126,
			"count":752,
			"max":[
				-18.22998046875,
				1.2220995426177979,
				1.564542293548584
			],
			"min":[
				-47.27192687988281,
				-1.085195779800415,
				-3.008652687072754
			],
			"type":"VEC3"
		},
		{
			"bufferView":9,
			"componentType":5126,
			"count":752,
			"type":"VEC3"
		},
		{
			"bufferView":10,
			"componentType":5126,
			"count":752,
			"type":"VEC2"
		},
		{
			"bufferView":11,
			"componentType":5123,
			"count":1500,
			"type":"SCALAR"
		},
		{
			"bufferView":12,
			"componentType":5126,
			"count":3186,
			"max":[
				-17.25262451171875,
				1.5730392932891846,
				1.4340578317642212
			],
			"min":[
				-47.27300262451172,
				-1.431432843208313,
				-0.7226992249488831
			],
			"type":"VEC3"
		},
		{
			"bufferView":13,
			"componentType":5126,
			"count":3186,
			"type":"VEC3"
		},
		{
			"bufferView":14,
			"componentType":5126,
			"count":3186,
			"type":"VEC2"
		},
		{
			"bufferView":15,
			"componentType":5123,
			"count":5862,
			"type":"SCALAR"
		},
		{
			"bufferView":16,
			"componentType":5126,
			"count":158,
			"max":[
				-40.57545471191406,
				1.5126769542694092,
				1.3741053342819214
			],
			"min":[
				-47.22687530517578,
				-1.242936134338379,
				-1.1060220003128052
			],
			"type":"VEC3"
		},
		{
			"bufferView":17,
			"componentType":5126,
			"count":158,
			"type":"VEC3"
		},
		{
			"bufferView":18,
			"componentType":5126,
			"count":158,
			"type":"VEC2"
		},
		{
			"bufferView":19,
			"componentType":5123,
			"count":252,
			"type":"SCALAR"
		},
		{
			"bufferView":20,
			"componentType":5126,
			"count":316,
			"max":[
				-17.253036499023438,
				1.5138124227523804,
				1.4340574741363525
			],
			"min":[
				-47.21263122558594,
				-1.381492018699646,
				-4.2129411697387695
			],
			"type":"VEC3"
		},
		{
			"bufferView":21,
			"componentType":5126,
			"count":316,
			"type":"VEC3"
		},
		{
			"bufferView":22,
			"componentType":5126,
			"count":316,
			"type":"VEC2"
		},
		{
			"bufferView":23,
			"componentType":5123,
			"count":600,
			"type":"SCALAR"
		}
	],
	"bufferViews":[
		{
			"buffer":0,
			"byteLength":9516,
			"byteOffset":0,
			"target":34962
		},
		{
			"buffer":0,
			"byteLength":9516,
			"byteOffset":9516,
			"target":34962
		},
		{
			"buffer":0,
			"byteLength":6344,
			"byteOffset":19032,
			"target":34962
		},
		{
			"buffer":0,
			"byteLength":3174,
			"byteOffset":25376,
			"target":34963
		},
		{
			"buffer":0,
			"byteLength":42312,
			"byteOffset":28552,
			"target":34962
		},
		{
			"buffer":0,
			"byteLength":42312,
			"byteOffset":70864,
			"target":34962
		},
		{
			"buffer":0,
			"byteLength":28208,
			"byteOffset":113176,
			"target":34962
		},
		{
			"buffer":0,
			"byteLength":17664,
			"byteOffset":141384,
			"target":34963
		},
		{
			"buffer":0,
			"byteLength":9024,
			"byteOffset":159048,
			"target":34962
		},
		{
			"buffer":0,
			"byteLength":9024,
			"byteOffset":168072,
			"target":34962
		},
		{
			"buffer":0,
			"byteLength":6016,
			"byteOffset":177096,
			"target":34962
		},
		{
			"buffer":0,
			"byteLength":3000,
			"byteOffset":183112,
			"target":34963
		},
		{
			"buffer":0,
			"byteLength":38232,
			"byteOffset":186112,
			"target":34962
		},
		{
			"buffer":0,
			"byteLength":38232,
			"byteOffset":224344,
			"target":34962
		},
		{
			"buffer":0,
			"byteLength":25488,
			"byteOffset":262576,
			"target":34962
		},
		{
			"buffer":0,
			"byteLength":11724,
			"byteOffset":288064,
			"target":34963
		},
		{
			"buffer":0,
			"byteLength":1896,
			"byteOffset":299788,
			"target":34962
		},
		{
			"buffer":0,
			"byteLength":1896,
			"byteOffset":301684,
			"target":34962
		},
		{
			"buffer":0,
			"byteLength":1264,
			"byteOffset":303580,
			"target":34962
		},
		{
			"buffer":0,
			"byteLength":504,
			"byteOffset":304844,
			"target":34963
		},
		{
			"buffer":0,
			"byteLength":3792,
			"byteOffset":305348,
			"target":34962
		},
		{
			"buffer":0,
			"byteLength":3792,
			"byteOffset":309140,
			"target":34962
		},
		{
			"buffer":0,
			"byteLength":2528,
			"byteOffset":312932,
			"target":34962
		},
		{
			"buffer":0,
			"byteLength":1200,
			"byteOffset":315460,
			"target":34963
		}
	],
	"samplers":[
		{
			"magFilter":9729,
			"minFilter":9987
		}
	],
	"buffers":[
		{
			"byteLength":316660,
			"uri":"bridge.bin"
		}
	]
}
