{
	"asset":{
		"generator":"Khronos glTF Blender I/O v4.5.48",
		"version":"2.0"
	},
	"scene":0,
	"scenes":[
		{
			"name":"Scene",
			"nodes":[
				12
			]
		}
	],
	"nodes":[
		{
			"mesh":0,
			"name":"Object_14",
			"translation":[
				-0.40295732021331787,
				-0.6959282159805298,
				-0.4030664265155792
			]
		},
		{
			"children":[
				0
			],
			"name":"cap_LP_6"
		},
		{
			"mesh":1,
			"name":"Object_10",
			"translation":[
				-0.06539471447467804,
				0.015138526447117329,
				0.025716375559568405
			]
		},
		{
			"children":[
				2
			],
			"name":"disk_LP_4"
		},
		{
			"mesh":2,
			"name":"Object_12",
			"translation":[
				-0.210847407579422,
				0.017438499256968498,
				0.02681833878159523
			]
		},
		{
			"children":[
				4
			],
			"name":"gaik_LP_5"
		},
		{
			"mesh":3,
			"name":"Object_4",
			"translation":[
				-0.03228328749537468,
				0.015647584572434425,
				0.02532152645289898
			]
		},
		{
			"children":[
				6
			],
			"name":"shin_LP_1"
		},
		{
			"name":"support_LP_3"
		},
		{
			"name":"tormoz_LP_2"
		},
		{
			"children":[
				1,
				3,
				5,
				7,
				8,
				9
			],
			"name":"GLTF_SceneRootNode"
		},
		{
			"children":[
				10
			],
			"name":"root"
		},
		{
			"children":[
				11
			],
			"name":"Sketchfab_model"
		}
	],
	"materials":[
		{
			"doubleSided":true,
			"name":"Coleso",
			"normalTexture":{
				"index":0
			},
			"pbrMetallicRoughness":{
				"baseColorTexture":{
					"index":1
				},
				"metallicRoughnessTexture":{
					"index":2
				}
			}
		}
	],
	"meshes":[
		{
			"name":"Object_5",
			"primitives":[
				{
					"attributes":{
						"POSITION":0,
						"NORMAL":1,
						"TEXCOORD_0":2,
						"TEXCOORD_1":3,
						"TEXCOORD_2":4,
						"TEXCOORD_3":5
					},
					"indices":6,
					"material":0
				}
			]
		},
		{
			"name":"Object_3",
			"primitives":[
				{
					"attributes":{
						"POSITION":7,
						"NORMAL":8,
						"TEXCOORD_0":9,
						"TEXCOORD_1":10,
						"TEXCOORD_2":11,
						"TEXCOORD_3":12
					},
					"indices":13,
					"material":0
				}
			]
		},
		{
			"name":"Object_4",
			"primitives":[
				{
					"attributes":{
						"POSITION":14,
						"NORMAL":15,
						"TEXCOORD_0":16,
						"TEXCOORD_1":17,
						"TEXCOORD_2":18,
						"TEXCOORD_3":19
					},
					"indices":20,
					"material":0
				}
			]
		},
		{
			"name":"Object_0",
			"primitives":[
				{
					"attributes":{
						"POSITION":21,
						"NORMAL":22,
						"TEXCOORD_0":23,
						"TEXCOORD_1":24,
						"TEXCOORD_2":25,
						"TEXCOORD_3":26
					},
					"indices":27,
					"material":0
				}
			]
		}
	],
	"textures":[
		{
			"sampler":0,
			"source":0
		},
		{
			"sampler":0,
			"source":1
		},
		{
			"sampler":0,
			"source":2
		}
	],
	"images":[
		{
			"mimeType":"image/png",
			"name":"Coleso_normal.png",
			"uri":"textures/Coleso_normal.png"
		},
		{
			"mimeType":"image/png",
			"name":"Coleso_baseColor.png",
			"uri":"textures/Coleso_baseColor.png"
		},
		{
			"mimeType":"image/png",
			"name":"Coleso_metallicRoughness.png",
			"uri":"textures/Coleso_metallicRoughness.png"
		}
	],
	"accessors":[
		{
			"bufferView":0,
			"componentType":5126,
			"count":593,
			"max":[
				0.06909447908401489,
				0.05185675621032715,
				0.03983256220817566
			],
			"min":[
				-0.03436347842216492,
				-0.11426091194152832,
				-0.08394438028335571
			],
			"type":"VEC3"
		},
		{
			"bufferView":1,
			"componentType":5126,
			"count":593,
			"type":"VEC3"
		},
		{
			"bufferView":2,
			"componentType":5126,
			"count":593,
			"type":"VEC2"
		},
		{
			"bufferView":3,
			"componentType":5126,
			"count":593,
			"type":"VEC2"
		},
		{
			"bufferView":4,
			"componentType":5126,
			"count":593,
			"type":"VEC2"
		},
		{
			"bufferView":5,
			"componentType":5126,
			"count":593,
			"type":"VEC2"
		},
		{
			"bufferView":6,
			"componentType":5123,
			"count":2394,
			"type":"SCALAR"
		},
		{
			"bufferView":7,
			"componentType":5126,
			"count":9243,
			"max":[
				0.6991664171218872,
				0.9317381978034973,
				0.9365749359130859
			],
			"min":[
				-0.2903277277946472,
				-0.928066074848175,
				-0.9283958077430725
			],
			"type":"VEC3"
		},
		{
			"bufferView":8,
			"componentType":5126,
			"count":9243,
			"type":"VEC3"
		},
		{
			"bufferView":9,
			"componentType":5126,
			"count":9243,
			"type":"VEC2"
		},
		{
			"bufferView":10,
			"componentType":5126,
			"count":9243,
			"type":"VEC2"
		},
		{
			"bufferView":11,
			"componentType":5126,
			"count":9243,
			"type":"VEC2"
		},
		{
			"bufferView":12,
			"componentType":5126,
			"count":9243,
			"type":"VEC2"
		},
		{
			"bufferView":13,
			"componentType":5123,
			"count":43800,
			"type":"SCALAR"
		},
		{
			"bufferView":14,
			"componentType":5126,
			"count":1023,
			"max":[
				0.11447363346815109,
				0.19731490314006805,
				0.18719179928302765
			],
			"min":[
				-0.02563224732875824,
				-0.16727177798748016,
				-0.187052920460701
			],
			"type":"VEC3"
		},
		{
			"bufferView":15,
			"componentType":5126,
			"count":1023,
			"type":"VEC3"
		},
		{
			"bufferView":16,
			"componentType":5126,
			"count":1023,
			"type":"VEC2"
		},
		{
			"bufferView":17,
			"componentType":5126,
			"count":1023,
			"type":"VEC2"
		},
		{
			"bufferView":18,
			"componentType":5126,
			"count":1023,
			"type":"VEC2"
		},
		{
			"bufferView":19,
			"componentType":5126,
			"count":1023,
			"type":"VEC2"
		},
		{
			"bufferView":20,
			"componentType":5123,
			"count":3672,
			"type":"SCALAR"
		},
		{
			"bufferView":21,
			"componentType":5126,
			"count":1212,
			"max":[
				0.47408992052078247,
				1.286378264427185,
				1.2757582664489746
			],
			"min":[
				-0.47283318638801575,
				-1.2633326053619385,
				-1.2763882875442505
			],
			"type":"VEC3"
		},
		{
			"bufferView":22,
			"componentType":5126,
			"count":1212,
			"type":"VEC3"
		},
		{
			"bufferView":23,
			"componentType":5126,
			"count":1212,
			"type":"VEC2"
		},
		{
			"bufferView":24,
			"componentType":5126,
			"count":1212,
			"type":"VEC2"
		},
		{
			"bufferView":25,
			"componentType":5126,
			"count":1212,
			"type":"VEC2"
		},
		{
			"bufferView":26,
			"componentType":5126,
			"count":1212,
			"type":"VEC2"
		},
		{
			"bufferView":27,
			"componentType":5123,
			"count":5400,
			"type":"SCALAR"
		}
	],
	"bufferViews":[
		{
			"buffer":0,
			"byteLength":7116,
			"byteOffset":0,
			"target":34962
		},
		{
			"buffer":0,
			"byteLength":7116,
			"byteOffset":7116,
			"target":34962
		},
		{
			"buffer":0,
			"byteLength":4744,
			"byteOffset":14232,
			"target":34962
		},
		{
			"buffer":0,
			"byteLength":4744,
			"byteOffset":18976,
			"target":34962
		},
		{
			"buffer":0,
			"byteLength":4744,
			"byteOffset":23720,
			"target":34962
		},
		{
			"buffer":0,
			"byteLength":4744,
			"byteOffset":28464,
			"target":34962
		},
		{
			"buffer":0,
			"byteLength":4788,
			"byteOffset":33208,
			"target":34963
		},
		{
			"buffer":0,
			"byteLength":110916,
			"byteOffset":37996,
			"target":34962
		},
		{
			"buffer":0,
			"byteLength":110916,
			"byteOffset":148912,
			"target":34962
		},
		{
			"buffer":0,
			"byteLength":73944,
			"byteOffset":259828,
			"target":34962
		},
		{
			"buffer":0,
			"byteLength":73944,
			"byteOffset":333772,
			"target":34962
		},
		{
			"buffer":0,
			"byteLength":73944,
			"byteOffset":407716,
			"target":34962
		},
		{
			"buffer":0,
			"byteLength":73944,
			"byteOffset":481660,
			"target":34962
		},
		{
			"buffer":0,
			"byteLength":87600,
			"byteOffset":555604,
			"target":34963
		},
		{
			"buffer":0,
			"byteLength":12276,
			"byteOffset":643204,
			"target":34962
		},
		{
			"buffer":0,
			"byteLength":12276,
			"byteOffset":655480,
			"target":34962
		},
		{
			"buffer":0,
			"byteLength":8184,
			"byteOffset":667756,
			"target":34962
		},
		{
			"buffer":0,
			"byteLength":8184,
			"byteOffset":675940,
			"target":34962
		},
		{
			"buffer":0,
			"byteLength":8184,
			"byteOffset":684124,
			"target":34962
		},
		{
			"buffer":0,
			"byteLength":8184,
			"byteOffset":692308,
			"target":34962
		},
		{
			"buffer":0,
			"byteLength":7344,
			"byteOffset":700492,
			"target":34963
		},
		{
			"buffer":0,
			"byteLength":14544,
			"byteOffset":707836,
			"target":34962
		},
		{
			"buffer":0,
			"byteLength":14544,
			"byteOffset":722380,
			"target":34962
		},
		{
			"buffer":0,
			"byteLength":9696,
			"byteOffset":736924,
			"target":34962
		},
		{
			"buffer":0,
			"byteLength":9696,
			"byteOffset":746620,
			"target":34962
		},
		{
			"buffer":0,
			"byteLength":9696,
			"byteOffset":756316,
			"target":34962
		},
		{
			"buffer":0,
			"byteLength":9696,
			"byteOffset":766012,
			"target":34962
		},
		{
			"buffer":0,
			"byteLength":10800,
			"byteOffset":775708,
			"target":34963
		}
	],
	"samplers":[
		{
			"magFilter":9729,
			"minFilter":9987
		}
	],
	"buffers":[
		{
			"byteLength":786508,
			"uri":"scene.bin"
		}
	]
}
