{
	"asset":{
		"generator":"Khronos glTF Blender I/O v4.5.48",
		"version":"2.0"
	},
	"extensionsUsed":[
		"KHR_materials_clearcoat"
	],
	"scene":0,
	"scenes":[
		{
			"name":"Scene",
			"nodes":[
				3,
				4,
				5,
				6,
				7,
				8,
				9,
				10,
				11,
				12,
				13,
				14,
				15,
				16,
				17,
				18,
				19,
				20,
				21,
				22,
				23,
				24
			]
		}
	],
	"nodes":[
		{
			"name":"UE4_rig_18"
		},
		{
			"children":[
				0
			],
			"name":"GLTF_SceneRootNode"
		},
		{
			"children":[
				1
			],
			"name":"root"
		},
		{
			"children":[
				2
			],
			"name":"Sketchfab_model"
		},
		{
			"mesh":0,
			"name":"Object_7"
		},
		{
			"mesh":1,
			"name":"Object_8"
		},
		{
			"mesh":2,
			"name":"Object_9"
		},
		{
			"mesh":3,
			"name":"Object_10"
		},
		{
			"mesh":4,
			"name":"Object_11"
		},
		{
			"mesh":5,
			"name":"Object_12"
		},
		{
			"mesh":6,
			"name":"Object_14"
		},
		{
			"mesh":7,
			"name":"Object_15"
		},
		{
			"mesh":8,
			"name":"Object_16"
		},
		{
			"mesh":9,
			"name":"Object_17"
		},
		{
			"name":"body_9"
		},
		{
			"name":"CFL_10"
		},
		{
			"name":"CFR_11"
		},
		{
			"name":"CRL_12"
		},
		{
			"name":"CRR_13"
		},
		{
			"name":"WFL_14"
		},
		{
			"name":"WFR_15"
		},
		{
			"name":"WRL_16"
		},
		{
			"name":"WRR_17"
		},
		{
			"mesh":10,
			"name":"MirrorGlass_L"
		},
		{
			"mesh":11,
			"name":"MirrorGlass_R"
		}
	],
	"materials":[
		{
			"doubleSided":true,
			"extensions":{
				"KHR_materials_clearcoat":{
					"clearcoatFactor":0.42399999499320984,
					"clearcoatRoughnessFactor":0.03999999910593033
				}
			},
			"name":"Primary_Paint",
			"normalTexture":{
				"index":0
			},
			"pbrMetallicRoughness":{
				"baseColorTexture":{
					"index":1
				},
				"metallicRoughnessTexture":{
					"index":2
				}
			}
		},
		{
			"doubleSided":true,
			"extensions":{
				"KHR_materials_clearcoat":{
					"clearcoatFactor":1,
					"clearcoatRoughnessFactor":0.09000000357627869
				}
			},
			"name":"Seconday_Paint",
			"normalTexture":{
				"index":3,
				"texCoord":2
			},
			"pbrMetallicRoughness":{
				"baseColorTexture":{
					"index":4
				},
				"metallicRoughnessTexture":{
					"index":5,
					"texCoord":1
				}
			}
		},
		{
			"doubleSided":true,
			"name":"Chrome",
			"normalTexture":{
				"index":6,
				"texCoord":2
			},
			"pbrMetallicRoughness":{
				"baseColorTexture":{
					"index":7
				},
				"metallicRoughnessTexture":{
					"index":8,
					"texCoord":1
				}
			}
		},
		{
			"doubleSided":true,
			"name":"Plastic",
			"normalTexture":{
				"index":9
			},
			"pbrMetallicRoughness":{
				"baseColorTexture":{
					"index":10
				},
				"metallicRoughnessTexture":{
					"index":11
				}
			}
		},
		{
			"alphaMode":"BLEND",
			"doubleSided":true,
			"name":"Dark_areas",
			"normalTexture":{
				"index":12
			},
			"pbrMetallicRoughness":{
				"baseColorFactor":[
					1,
					1,
					1,
					0.20000000298023224
				],
				"baseColorTexture":{
					"index":13
				},
				"metallicFactor":0,
				"roughnessFactor":0.05000000074505806
			}
		}
	],
	"meshes":[
		{
			"name":"Object_0.001",
			"primitives":[
				{
					"attributes":{
						"POSITION":0,
						"NORMAL":1,
						"TEXCOORD_0":2,
						"TEXCOORD_1":3,
						"TEXCOORD_2":4,
						"TEXCOORD_3":5
					},
					"indices":6,
					"material":0
				}
			]
		},
		{
			"name":"Object_1.001",
			"primitives":[
				{
					"attributes":{
						"POSITION":7,
						"NORMAL":8,
						"TEXCOORD_0":9,
						"TEXCOORD_1":10,
						"TEXCOORD_2":11,
						"TEXCOORD_3":12
					},
					"indices":13,
					"material":1
				}
			]
		},
		{
			"name":"Object_2.001",
			"primitives":[
				{
					"attributes":{
						"POSITION":14,
						"NORMAL":15,
						"TEXCOORD_0":16,
						"TEXCOORD_1":17,
						"TEXCOORD_2":18,
						"TEXCOORD_3":19
					},
					"indices":20,
					"material":1
				}
			]
		},
		{
			"name":"Object_3.001",
			"primitives":[
				{
					"attributes":{
						"POSITION":21,
						"NORMAL":22,
						"TEXCOORD_0":23,
						"TEXCOORD_1":24,
						"TEXCOORD_2":25,
						"TEXCOORD_3":26
					},
					"indices":27,
					"material":1
				}
			]
		},
		{
			"name":"Object_4.001",
			"primitives":[
				{
					"attributes":{
						"POSITION":28,
						"NORMAL":29,
						"TEXCOORD_0":30,
						"TEXCOORD_1":31,
						"TEXCOORD_2":32,
						"TEXCOORD_3":33
					},
					"indices":34,
					"material":1
				}
			]
		},
		{
			"name":"Object_5.001",
			"primitives":[
				{
					"attributes":{
						"POSITION":35,
						"NORMAL":36,
						"TEXCOORD_0":37,
						"TEXCOORD_1":38,
						"TEXCOORD_2":39,
						"TEXCOORD_3":40
					},
					"indices":41,
					"material":1
				}
			]
		},
		{
			"name":"Object_7",
			"primitives":[
				{
					"attributes":{
						"POSITION":42,
						"NORMAL":43,
						"TEXCOORD_0":44,
						"TEXCOORD_1":45,
						"TEXCOORD_2":46,
						"TEXCOORD_3":47
					},
					"indices":48,
					"material":2
				}
			]
		},
		{
			"name":"Object_8",
			"primitives":[
				{
					"attributes":{
						"POSITION":49,
						"NORMAL":50,
						"TEXCOORD_0":51,
						"TEXCOORD_1":52,
						"TEXCOORD_2":53,
						"TEXCOORD_3":54
					},
					"indices":55,
					"material":2
				}
			]
		},
		{
			"name":"Object_9",
			"primitives":[
				{
					"attributes":{
						"POSITION":56,
						"NORMAL":57,
						"TEXCOORD_0":58,
						"TEXCOORD_1":59,
						"TEXCOORD_2":60,
						"TEXCOORD_3":61
					},
					"indices":62,
					"material":3
				}
			]
		},
		{
			"name":"Object_10",
			"primitives":[
				{
					"attributes":{
						"POSITION":63,
						"NORMAL":64,
						"TEXCOORD_0":65,
						"TEXCOORD_1":66,
						"TEXCOORD_2":67,
						"TEXCOORD_3":68
					},
					"indices":69,
					"material":4
				}
			]
		},
		{
			"name":"Object_7.001",
			"primitives":[
				{
					"attributes":{
						"POSITION":70,
						"NORMAL":71,
						"TEXCOORD_0":72,
						"TEXCOORD_1":73,
						"TEXCOORD_2":74,
						"TEXCOORD_3":75
					},
					"indices":76,
					"material":2
				}
			]
		},
		{
			"name":"Object_7.002",
			"primitives":[
				{
					"attributes":{
						"POSITION":77,
						"NORMAL":78,
						"TEXCOORD_0":79,
						"TEXCOORD_1":80,
						"TEXCOORD_2":81,
						"TEXCOORD_3":82
					},
					"indices":83,
					"material":2
				}
			]
		}
	],
	"textures":[
		{
			"sampler":0,
			"source":0
		},
		{
			"sampler":0,
			"source":1
		},
		{
			"sampler":0,
			"source":2
		},
		{
			"sampler":0,
			"source":3
		},
		{
			"sampler":0,
			"source":4
		},
		{
			"sampler":0,
			"source":5
		},
		{
			"sampler":0,
			"source":6
		},
		{
			"sampler":0,
			"source":7
		},
		{
			"sampler":0,
			"source":8
		},
		{
			"sampler":0,
			"source":9
		},
		{
			"sampler":0,
			"source":10
		},
		{
			"sampler":0,
			"source":11
		},
		{
			"sampler":0,
			"source":12
		},
		{
			"sampler":0,
			"source":13
		}
	],
	"images":[
		{
			"mimeType":"image/png",
			"name":"Primary_Paint_normal.png",
			"uri":"textures/Primary_Paint_normal.png"
		},
		{
			"mimeType":"image/png",
			"name":"Primary_Paint_baseColor.png",
			"uri":"textures/Primary_Paint_baseColor.png"
		},
		{
			"mimeType":"image/png",
			"name":"Primary_Paint_metallicRoughness.png",
			"uri":"textures/Primary_Paint_metallicRoughness.png"
		},
		{
			"mimeType":"image/png",
			"name":"Seconday_Paint_normal.png",
			"uri":"textures/Seconday_Paint_normal.png"
		},
		{
			"mimeType":"image/png",
			"name":"Seconday_Paint_baseColor.png",
			"uri":"textures/Seconday_Paint_baseColor.png"
		},
		{
			"mimeType":"image/png",
			"name":"Seconday_Paint_metallicRoughness.png",
			"uri":"textures/Seconday_Paint_metallicRoughness.png"
		},
		{
			"mimeType":"image/png",
			"name":"Chrome_normal.png",
			"uri":"textures/Chrome_normal.png"
		},
		{
			"mimeType":"image/png",
			"name":"Chrome_baseColor.png",
			"uri":"textures/Chrome_baseColor.png"
		},
		{
			"mimeType":"image/png",
			"name":"Chrome_metallicRoughness.png",
			"uri":"textures/Chrome_metallicRoughness.png"
		},
		{
			"mimeType":"image/png",
			"name":"Plastic_normal.png",
			"uri":"textures/Plastic_normal.png"
		},
		{
			"mimeType":"image/png",
			"name":"Plastic_baseColor.png",
			"uri":"textures/Plastic_baseColor.png"
		},
		{
			"mimeType":"image/png",
			"name":"Plastic_metallicRoughness.png",
			"uri":"textures/Plastic_metallicRoughness.png"
		},
		{
			"mimeType":"image/png",
			"name":"Dark_areas_normal.png",
			"uri":"textures/Dark_areas_normal.png"
		},
		{
			"mimeType":"image/png",
			"name":"Dark_areas_baseColor.png",
			"uri":"textures/Dark_areas_baseColor.png"
		}
	],
	"accessors":[
		{
			"bufferView":0,
			"componentType":5126,
			"count":13160,
			"max":[
				218.24862670898438,
				59.36670684814453,
				106.7211685180664
			],
			"min":[
				-228.58328247070312,
				-43.662906646728516,
				-107.05840301513672
			],
			"type":"VEC3"
		},
		{
			"bufferView":1,
			"componentType":5126,
			"count":13160,
			"type":"VEC3"
		},
		{
			"bufferView":2,
			"componentType":5126,
			"count":13160,
			"type":"VEC2"
		},
		{
			"bufferView":3,
			"componentType":5126,
			"count":13160,
			"type":"VEC2"
		},
		{
			"bufferView":4,
			"componentType":5126,
			"count":13160,
			"type":"VEC2"
		},
		{
			"bufferView":5,
			"componentType":5126,
			"count":13160,
			"type":"VEC2"
		},
		{
			"bufferView":6,
			"componentType":5123,
			"count":48438,
			"type":"SCALAR"
		},
		{
			"bufferView":7,
			"componentType":5126,
			"count":24954,
			"max":[
				217.86924743652344,
				58.526878356933594,
				93.48155212402344
			],
			"min":[
				-226.13885498046875,
				-43.83864974975586,
				-93.57652282714844
			],
			"type":"VEC3"
		},
		{
			"bufferView":8,
			"componentType":5126,
			"count":24954,
			"type":"VEC3"
		},
		{
			"bufferView":9,
			"componentType":5126,
			"count":24954,
			"type":"VEC2"
		},
		{
			"bufferView":10,
			"componentType":5126,
			"count":24954,
			"type":"VEC2"
		},
		{
			"bufferView":11,
			"componentType":5126,
			"count":24954,
			"type":"VEC2"
		},
		{
			"bufferView":12,
			"componentType":5126,
			"count":24954,
			"type":"VEC2"
		},
		{
			"bufferView":13,
			"componentType":5123,
			"count":73236,
			"type":"SCALAR"
		},
		{
			"bufferView":14,
			"componentType":5126,
			"count":31811,
			"max":[
				202.11631774902344,
				33.15058135986328,
				87.53424835205078
			],
			"min":[
				-204.43568420410156,
				-33.94707489013672,
				-89.42382049560547
			],
			"type":"VEC3"
		},
		{
			"bufferView":15,
			"componentType":5126,
			"count":31811,
			"type":"VEC3"
		},
		{
			"bufferView":16,
			"componentType":5126,
			"count":31811,
			"type":"VEC2"
		},
		{
			"bufferView":17,
			"componentType":5126,
			"count":31811,
			"type":"VEC2"
		},
		{
			"bufferView":18,
			"componentType":5126,
			"count":31811,
			"type":"VEC2"
		},
		{
			"bufferView":19,
			"componentType":5126,
			"count":31811,
			"type":"VEC2"
		},
		{
			"bufferView":20,
			"componentType":5123,
			"count":94962,
			"type":"SCALAR"
		},
		{
			"bufferView":21,
			"componentType":5126,
			"count":45580,
			"max":[
				202.2283477783203,
				35.237876892089844,
				93.11824798583984
			],
			"min":[
				-229.3174285888672,
				-43.02531433105469,
				-93.20181274414062
			],
			"type":"VEC3"
		},
		{
			"bufferView":22,
			"componentType":5126,
			"count":45580,
			"type":"VEC3"
		},
		{
			"bufferView":23,
			"componentType":5126,
			"count":45580,
			"type":"VEC2"
		},
		{
			"bufferView":24,
			"componentType":5126,
			"count":45580,
			"type":"VEC2"
		},
		{
			"bufferView":25,
			"componentType":5126,
			"count":45580,
			"type":"VEC2"
		},
		{
			"bufferView":26,
			"componentType":5126,
			"count":45580,
			"type":"VEC2"
		},
		{
			"bufferView":27,
			"componentType":5123,
			"count":169836,
			"type":"SCALAR"
		},
		{
			"bufferView":28,
			"componentType":5126,
			"count":33930,
			"max":[
				214.85299682617188,
				58.49884796142578,
				86.37340545654297
			],
			"min":[
				-227.01609802246094,
				-33.93849182128906,
				-86.17422485351562
			],
			"type":"VEC3"
		},
		{
			"bufferView":29,
			"componentType":5126,
			"count":33930,
			"type":"VEC3"
		},
		{
			"bufferView":30,
			"componentType":5126,
			"count":33930,
			"type":"VEC2"
		},
		{
			"bufferView":31,
			"componentType":5126,
			"count":33930,
			"type":"VEC2"
		},
		{
			"bufferView":32,
			"componentType":5126,
			"count":33930,
			"type":"VEC2"
		},
		{
			"bufferView":33,
			"componentType":5126,
			"count":33930,
			"type":"VEC2"
		},
		{
			"bufferView":34,
			"componentType":5123,
			"count":114300,
			"type":"SCALAR"
		},
		{
			"bufferView":35,
			"componentType":5126,
			"count":19412,
			"max":[
				202.22410583496094,
				27.838890075683594,
				86.37904357910156
			],
			"min":[
				184.15965270996094,
				-33.9459228515625,
				-84.03546905517578
			],
			"type":"VEC3"
		},
		{
			"bufferView":36,
			"componentType":5126,
			"count":19412,
			"type":"VEC3"
		},
		{
			"bufferView":37,
			"componentType":5126,
			"count":19412,
			"type":"VEC2"
		},
		{
			"bufferView":38,
			"componentType":5126,
			"count":19412,
			"type":"VEC2"
		},
		{
			"bufferView":39,
			"componentType":5126,
			"count":19412,
			"type":"VEC2"
		},
		{
			"bufferView":40,
			"componentType":5126,
			"count":19412,
			"type":"VEC2"
		},
		{
			"bufferView":41,
			"componentType":5123,
			"count":35559,
			"type":"SCALAR"
		},
		{
			"bufferView":42,
			"componentType":5126,
			"count":23022,
			"max":[
				218.19715881347656,
				36.67681884765625,
				104.92506408691406
			],
			"min":[
				-221.08827209472656,
				-33.18091583251953,
				-105.09992980957031
			],
			"type":"VEC3"
		},
		{
			"bufferView":43,
			"componentType":5126,
			"count":23022,
			"type":"VEC3"
		},
		{
			"bufferView":44,
			"componentType":5126,
			"count":23022,
			"type":"VEC2"
		},
		{
			"bufferView":45,
			"componentType":5126,
			"count":23022,
			"type":"VEC2"
		},
		{
			"bufferView":46,
			"componentType":5126,
			"count":23022,
			"type":"VEC2"
		},
		{
			"bufferView":47,
			"componentType":5126,
			"count":23022,
			"type":"VEC2"
		},
		{
			"bufferView":48,
			"componentType":5123,
			"count":56139,
			"type":"SCALAR"
		},
		{
			"bufferView":49,
			"componentType":5126,
			"count":9590,
			"max":[
				213.327392578125,
				-22.12293815612793,
				22.506032943725586
			],
			"min":[
				188.95040893554688,
				-33.18091583251953,
				-23.232187271118164
			],
			"type":"VEC3"
		},
		{
			"bufferView":50,
			"componentType":5126,
			"count":9590,
			"type":"VEC3"
		},
		{
			"bufferView":51,
			"componentType":5126,
			"count":9590,
			"type":"VEC2"
		},
		{
			"bufferView":52,
			"componentType":5126,
			"count":9590,
			"type":"VEC2"
		},
		{
			"bufferView":53,
			"componentType":5126,
			"count":9590,
			"type":"VEC2"
		},
		{
			"bufferView":54,
			"componentType":5126,
			"count":9590,
			"type":"VEC2"
		},
		{
			"bufferView":55,
			"componentType":5123,
			"count":20625,
			"type":"SCALAR"
		},
		{
			"bufferView":56,
			"componentType":5126,
			"count":9116,
			"max":[
				213.7556610107422,
				58.23772430419922,
				91.92259979248047
			],
			"min":[
				-202.49560546875,
				-47.16504669189453,
				-92.50676727294922
			],
			"type":"VEC3"
		},
		{
			"bufferView":57,
			"componentType":5126,
			"count":9116,
			"type":"VEC3"
		},
		{
			"bufferView":58,
			"componentType":5126,
			"count":9116,
			"type":"VEC2"
		},
		{
			"bufferView":59,
			"componentType":5126,
			"count":9116,
			"type":"VEC2"
		},
		{
			"bufferView":60,
			"componentType":5126,
			"count":9116,
			"type":"VEC2"
		},
		{
			"bufferView":61,
			"componentType":5126,
			"count":9116,
			"type":"VEC2"
		},
		{
			"bufferView":62,
			"componentType":5123,
			"count":24624,
			"type":"SCALAR"
		},
		{
			"bufferView":63,
			"componentType":5126,
			"count":4049,
			"max":[
				204.89801025390625,
				59.04216003417969,
				92.89979553222656
			],
			"min":[
				-223.21266174316406,
				-43.414127349853516,
				-93.40852355957031
			],
			"type":"VEC3"
		},
		{
			"bufferView":64,
			"componentType":5126,
			"count":4049,
			"type":"VEC3"
		},
		{
			"bufferView":65,
			"componentType":5126,
			"count":4049,
			"type":"VEC2"
		},
		{
			"bufferView":66,
			"componentType":5126,
			"count":4049,
			"type":"VEC2"
		},
		{
			"bufferView":67,
			"componentType":5126,
			"count":4049,
			"type":"VEC2"
		},
		{
			"bufferView":68,
			"componentType":5126,
			"count":4049,
			"type":"VEC2"
		},
		{
			"bufferView":69,
			"componentType":5123,
			"count":10407,
			"type":"SCALAR"
		},
		{
			"bufferView":70,
			"componentType":5126,
			"count":303,
			"max":[
				-4.466184139251709,
				36.12841796875,
				-90.85326385498047
			],
			"min":[
				-10.041972160339355,
				26.447532653808594,
				-105.26708221435547
			],
			"type":"VEC3"
		},
		{
			"bufferView":71,
			"componentType":5126,
			"count":303,
			"type":"VEC3"
		},
		{
			"bufferView":72,
			"componentType":5126,
			"count":303,
			"type":"VEC2"
		},
		{
			"bufferView":73,
			"componentType":5126,
			"count":303,
			"type":"VEC2"
		},
		{
			"bufferView":74,
			"componentType":5126,
			"count":303,
			"type":"VEC2"
		},
		{
			"bufferView":75,
			"componentType":5126,
			"count":303,
			"type":"VEC2"
		},
		{
			"bufferView":76,
			"componentType":5123,
			"count":678,
			"type":"SCALAR"
		},
		{
			"bufferView":77,
			"componentType":5126,
			"count":251,
			"max":[
				-4.314793586730957,
				36.12841796875,
				104.96155548095703
			],
			"min":[
				-9.911336898803711,
				26.447532653808594,
				90.51959228515625
			],
			"type":"VEC3"
		},
		{
			"bufferView":78,
			"componentType":5126,
			"count":251,
			"type":"VEC3"
		},
		{
			"bufferView":79,
			"componentType":5126,
			"count":251,
			"type":"VEC2"
		},
		{
			"bufferView":80,
			"componentType":5126,
			"count":251,
			"type":"VEC2"
		},
		{
			"bufferView":81,
			"componentType":5126,
			"count":251,
			"type":"VEC2"
		},
		{
			"bufferView":82,
			"componentType":5126,
			"count":251,
			"type":"VEC2"
		},
		{
			"bufferView":83,
			"componentType":5123,
			"count":690,
			"type":"SCALAR"
		}
	],
	"bufferViews":[
		{
			"buffer":0,
			"byteLength":157920,
			"byteOffset":0,
			"target":34962
		},
		{
			"buffer":0,
			"byteLength":157920,
			"byteOffset":157920,
			"target":34962
		},
		{
			"buffer":0,
			"byteLength":105280,
			"byteOffset":315840,
			"target":34962
		},
		{
			"buffer":0,
			"byteLength":105280,
			"byteOffset":421120,
			"target":34962
		},
		{
			"buffer":0,
			"byteLength":105280,
			"byteOffset":526400,
			"target":34962
		},
		{
			"buffer":0,
			"byteLength":105280,
			"byteOffset":631680,
			"target":34962
		},
		{
			"buffer":0,
			"byteLength":96876,
			"byteOffset":736960,
			"target":34963
		},
		{
			"buffer":0,
			"byteLength":299448,
			"byteOffset":833836,
			"target":34962
		},
		{
			"buffer":0,
			"byteLength":299448,
			"byteOffset":1133284,
			"target":34962
		},
		{
			"buffer":0,
			"byteLength":199632,
			"byteOffset":1432732,
			"target":34962
		},
		{
			"buffer":0,
			"byteLength":199632,
			"byteOffset":1632364,
			"target":34962
		},
		{
			"buffer":0,
			"byteLength":199632,
			"byteOffset":1831996,
			"target":34962
		},
		{
			"buffer":0,
			"byteLength":199632,
			"byteOffset":2031628,
			"target":34962
		},
		{
			"buffer":0,
			"byteLength":146472,
			"byteOffset":2231260,
			"target":34963
		},
		{
			"buffer":0,
			"byteLength":381732,
			"byteOffset":2377732,
			"target":34962
		},
		{
			"buffer":0,
			"byteLength":381732,
			"byteOffset":2759464,
			"target":34962
		},
		{
			"buffer":0,
			"byteLength":254488,
			"byteOffset":3141196,
			"target":34962
		},
		{
			"buffer":0,
			"byteLength":254488,
			"byteOffset":3395684,
			"target":34962
		},
		{
			"buffer":0,
			"byteLength":254488,
			"byteOffset":3650172,
			"target":34962
		},
		{
			"buffer":0,
			"byteLength":254488,
			"byteOffset":3904660,
			"target":34962
		},
		{
			"buffer":0,
			"byteLength":189924,
			"byteOffset":4159148,
			"target":34963
		},
		{
			"buffer":0,
			"byteLength":546960,
			"byteOffset":4349072,
			"target":34962
		},
		{
			"buffer":0,
			"byteLength":546960,
			"byteOffset":4896032,
			"target":34962
		},
		{
			"buffer":0,
			"byteLength":364640,
			"byteOffset":5442992,
			"target":34962
		},
		{
			"buffer":0,
			"byteLength":364640,
			"byteOffset":5807632,
			"target":34962
		},
		{
			"buffer":0,
			"byteLength":364640,
			"byteOffset":6172272,
			"target":34962
		},
		{
			"buffer":0,
			"byteLength":364640,
			"byteOffset":6536912,
			"target":34962
		},
		{
			"buffer":0,
			"byteLength":339672,
			"byteOffset":6901552,
			"target":34963
		},
		{
			"buffer":0,
			"byteLength":407160,
			"byteOffset":7241224,
			"target":34962
		},
		{
			"buffer":0,
			"byteLength":407160,
			"byteOffset":7648384,
			"target":34962
		},
		{
			"buffer":0,
			"byteLength":271440,
			"byteOffset":8055544,
			"target":34962
		},
		{
			"buffer":0,
			"byteLength":271440,
			"byteOffset":8326984,
			"target":34962
		},
		{
			"buffer":0,
			"byteLength":271440,
			"byteOffset":8598424,
			"target":34962
		},
		{
			"buffer":0,
			"byteLength":271440,
			"byteOffset":8869864,
			"target":34962
		},
		{
			"buffer":0,
			"byteLength":228600,
			"byteOffset":9141304,
			"target":34963
		},
		{
			"buffer":0,
			"byteLength":232944,
			"byteOffset":9369904,
			"target":34962
		},
		{
			"buffer":0,
			"byteLength":232944,
			"byteOffset":9602848,
			"target":34962
		},
		{
			"buffer":0,
			"byteLength":155296,
			"byteOffset":9835792,
			"target":34962
		},
		{
			"buffer":0,
			"byteLength":155296,
			"byteOffset":9991088,
			"target":34962
		},
		{
			"buffer":0,
			"byteLength":155296,
			"byteOffset":10146384,
			"target":34962
		},
		{
			"buffer":0,
			"byteLength":155296,
			"byteOffset":10301680,
			"target":34962
		},
		{
			"buffer":0,
			"byteLength":71118,
			"byteOffset":10456976,
			"target":34963
		},
		{
			"buffer":0,
			"byteLength":276264,
			"byteOffset":10528096,
			"target":34962
		},
		{
			"buffer":0,
			"byteLength":276264,
			"byteOffset":10804360,
			"target":34962
		},
		{
			"buffer":0,
			"byteLength":184176,
			"byteOffset":11080624,
			"target":34962
		},
		{
			"buffer":0,
			"byteLength":184176,
			"byteOffset":11264800,
			"target":34962
		},
		{
			"buffer":0,
			"byteLength":184176,
			"byteOffset":11448976,
			"target":34962
		},
		{
			"buffer":0,
			"byteLength":184176,
			"byteOffset":11633152,
			"target":34962
		},
		{
			"buffer":0,
			"byteLength":112278,
			"byteOffset":11817328,
			"target":34963
		},
		{
			"buffer":0,
			"byteLength":115080,
			"byteOffset":11929608,
			"target":34962
		},
		{
			"buffer":0,
			"byteLength":115080,
			"byteOffset":12044688,
			"target":34962
		},
		{
			"buffer":0,
			"byteLength":76720,
			"byteOffset":12159768,
			"target":34962
		},
		{
			"buffer":0,
			"byteLength":76720,
			"byteOffset":12236488,
			"target":34962
		},
		{
			"buffer":0,
			"byteLength":76720,
			"byteOffset":12313208,
			"target":34962
		},
		{
			"buffer":0,
			"byteLength":76720,
			"byteOffset":12389928,
			"target":34962
		},
		{
			"buffer":0,
			"byteLength":41250,
			"byteOffset":12466648,
			"target":34963
		},
		{
			"buffer":0,
			"byteLength":109392,
			"byteOffset":12507900,
			"target":34962
		},
		{
			"buffer":0,
			"byteLength":109392,
			"byteOffset":12617292,
			"target":34962
		},
		{
			"buffer":0,
			"byteLength":72928,
			"byteOffset":12726684,
			"target":34962
		},
		{
			"buffer":0,
			"byteLength":72928,
			"byteOffset":12799612,
			"target":34962
		},
		{
			"buffer":0,
			"byteLength":72928,
			"byteOffset":12872540,
			"target":34962
		},
		{
			"buffer":0,
			"byteLength":72928,
			"byteOffset":12945468,
			"target":34962
		},
		{
			"buffer":0,
			"byteLength":49248,
			"byteOffset":13018396,
			"target":34963
		},
		{
			"buffer":0,
			"byteLength":48588,
			"byteOffset":13067644,
			"target":34962
		},
		{
			"buffer":0,
			"byteLength":48588,
			"byteOffset":13116232,
			"target":34962
		},
		{
			"buffer":0,
			"byteLength":32392,
			"byteOffset":13164820,
			"target":34962
		},
		{
			"buffer":0,
			"byteLength":32392,
			"byteOffset":13197212,
			"target":34962
		},
		{
			"buffer":0,
			"byteLength":32392,
			"byteOffset":13229604,
			"target":34962
		},
		{
			"buffer":0,
			"byteLength":32392,
			"byteOffset":13261996,
			"target":34962
		},
		{
			"buffer":0,
			"byteLength":20814,
			"byteOffset":13294388,
			"target":34963
		},
		{
			"buffer":0,
			"byteLength":3636,
			"byteOffset":13315204,
			"target":34962
		},
		{
			"buffer":0,
			"byteLength":3636,
			"byteOffset":13318840,
			"target":34962
		},
		{
			"buffer":0,
			"byteLength":2424,
			"byteOffset":13322476,
			"target":34962
		},
		{
			"buffer":0,
			"byteLength":2424,
			"byteOffset":13324900,
			"target":34962
		},
		{
			"buffer":0,
			"byteLength":2424,
			"byteOffset":13327324,
			"target":34962
		},
		{
			"buffer":0,
			"byteLength":2424,
			"byteOffset":13329748,
			"target":34962
		},
		{
			"buffer":0,
			"byteLength":1356,
			"byteOffset":13332172,
			"target":34963
		},
		{
			"buffer":0,
			"byteLength":3012,
			"byteOffset":13333528,
			"target":34962
		},
		{
			"buffer":0,
			"byteLength":3012,
			"byteOffset":13336540,
			"target":34962
		},
		{
			"buffer":0,
			"byteLength":2008,
			"byteOffset":13339552,
			"target":34962
		},
		{
			"buffer":0,
			"byteLength":2008,
			"byteOffset":13341560,
			"target":34962
		},
		{
			"buffer":0,
			"byteLength":2008,
			"byteOffset":13343568,
			"target":34962
		},
		{
			"buffer":0,
			"byteLength":2008,
			"byteOffset":13345576,
			"target":34962
		},
		{
			"buffer":0,
			"byteLength":1380,
			"byteOffset":13347584,
			"target":34963
		}
	],
	"samplers":[
		{
			"magFilter":9729,
			"minFilter":9987
		}
	],
	"buffers":[
		{
			"byteLength":13348964,
			"uri":"car.bin"
		}
	]
}
