{
	"asset":{
		"generator":"Khronos glTF Blender I/O v4.5.48",
		"version":"2.0"
	},
	"extensionsUsed":[
		"KHR_materials_clearcoat"
	],
	"scene":0,
	"scenes":[
		{
			"name":"Scene",
			"nodes":[
				3,
				4,
				5,
				6,
				7,
				8,
				9,
				10,
				11,
				12,
				13,
				14,
				15,
				16,
				17,
				18,
				19,
				20,
				21,
				22,
				23,
				24
			]
		}
	],
	"nodes":[
		{
			"name":"UE4_rig_18"
		},
		{
			"children":[
				0
			],
			"name":"GLTF_SceneRootNode"
		},
		{
			"children":[
				1
			],
			"name":"root"
		},
		{
			"children":[
				2
			],
			"name":"Sketchfab_model"
		},
		{
			"mesh":0,
			"name":"Object_7"
		},
		{
			"mesh":1,
			"name":"Object_8"
		},
		{
			"mesh":2,
			"name":"Object_9"
		},
		{
			"mesh":3,
			"name":"Object_10"
		},
		{
			"mesh":4,
			"name":"Object_11"
		},
		{
			"mesh":5,
			"name":"Object_12"
		},
		{
			"mesh":6,
			"name":"Object_14"
		},
		{
			"mesh":7,
			"name":"Object_15"
		},
		{
			"mesh":8,
			"name":"Object_16"
		},
		{
			"mesh":9,
			"name":"Object_17"
		},
		{
			"name":"body_9"
		},
		{
			"name":"CFL_10"
		},
		{
			"name":"CFR_11"
		},
		{
			"name":"CRL_12"
		},
		{
			"name":"CRR_13"
		},
		{
			"name":"WFL_14"
		},
		{
			"name":"WFR_15"
		},
		{
			"name":"WRL_16"
		},
		{
			"name":"WRR_17"
		},
		{
			"mesh":10,
			"name":"MirrorGlass_L"
		},
		{
			"mesh":11,
			"name":"MirrorGlass_R"
		}
	],
	"materials":[
		{
			"doubleSided":true,
			"extensions":{
				"KHR_materials_clearcoat":{
					"clearcoatFactor":0.42399999499320984,
					"clearcoatRoughnessFactor":0.03999999910593033
				}
			},
			"name":"Primary_Paint",
			"normalTexture":{
				"index":0
			},
			"pbrMetallicRoughness":{
				"baseColorTexture":{
					"index":1
				},
				"metallicRoughnessTexture":{
					"index":2
				}
			}
		},
		{
			"doubleSided":true,
			"extensions":{
				"KHR_materials_clearcoat":{
					"clearcoatFactor":1,
					"clearcoatRoughnessFactor":0.09000000357627869
				}
			},
			"name":"Seconday_Paint",
			"normalTexture":{
				"index":3,
				"texCoord":2
			},
			"pbrMetallicRoughness":{
				"baseColorTexture":{
					"index":4
				},
				"metallicRoughnessTexture":{
					"index":5,
					"texCoord":1
				}
			}
		},
		{
			"doubleSided":true,
			"name":"Chrome",
			"normalTexture":{
				"index":6,
				"texCoord":2
			},
			"pbrMetallicRoughness":{
				"baseColorTexture":{
					"index":7
				},
				"metallicRoughnessTexture":{
					"index":8,
					"texCoord":1
				}
			}
		},
		{
			"doubleSided":true,
			"name":"Plastic",
			"normalTexture":{
				"index":9
			},
			"pbrMetallicRoughness":{
				"baseColorTexture":{
					"index":10
				},
				"metallicRoughnessTexture":{
					"index":11
				}
			}
		},
		{
			"alphaMode":"BLEND",
			"doubleSided":true,
			"name":"Dark_areas",
			"normalTexture":{
				"index":12
			},
			"pbrMetallicRoughness":{
				"baseColorFactor":[
					1,
					1,
					1,
					0.20000000298023224
				],
				"baseColorTexture":{
					"index":13
				},
				"metallicFactor":0,
				"roughnessFactor":0.05000000074505806
			}
		}
	],
	"meshes":[
		{
			"name":"Object_0",
			"primitives":[
				{
					"attributes":{
						"POSITION":0,
						"NORMAL":1,
						"TEXCOORD_0":2,
						"TEXCOORD_1":3,
						"TEXCOORD_2":4,
						"TEXCOORD_3":5
					},
					"indices":6,
					"material":0
				}
			]
		},
		{
			"name":"Object_1",
			"primitives":[
				{
					"attributes":{
						"POSITION":7,
						"NORMAL":8,
						"TEXCOORD_0":9,
						"TEXCOORD_1":10,
						"TEXCOORD_2":11,
						"TEXCOORD_3":12
					},
					"indices":13,
					"material":1
				}
			]
		},
		{
			"name":"Object_2",
			"primitives":[
				{
					"attributes":{
						"POSITION":14,
						"NORMAL":15,
						"TEXCOORD_0":16,
						"TEXCOORD_1":17,
						"TEXCOORD_2":18,
						"TEXCOORD_3":19
					},
					"indices":20,
					"material":1
				}
			]
		},
		{
			"name":"Object_3",
			"primitives":[
				{
					"attributes":{
						"POSITION":21,
						"NORMAL":22,
						"TEXCOORD_0":23,
						"TEXCOORD_1":24,
						"TEXCOORD_2":25,
						"TEXCOORD_3":26
					},
					"indices":27,
					"material":1
				}
			]
		},
		{
			"name":"Object_4",
			"primitives":[
				{
					"attributes":{
						"POSITION":28,
						"NORMAL":29,
						"TEXCOORD_0":30,
						"TEXCOORD_1":31,
						"TEXCOORD_2":32,
						"TEXCOORD_3":33
					},
					"indices":34,
					"material":1
				}
			]
		},
		{
			"name":"Object_5",
			"primitives":[
				{
					"attributes":{
						"POSITION":35,
						"NORMAL":36,
						"TEXCOORD_0":37,
						"TEXCOORD_1":38,
						"TEXCOORD_2":39,
						"TEXCOORD_3":40
					},
					"indices":41,
					"material":1
				}
			]
		},
		{
			"name":"Object_7",
			"primitives":[
				{
					"attributes":{
						"POSITION":42,
						"NORMAL":43,
						"TEXCOORD_0":44,
						"TEXCOORD_1":45,
						"TEXCOORD_2":46,
						"TEXCOORD_3":47
					},
					"indices":48,
					"material":2
				}
			]
		},
		{
			"name":"Object_8",
			"primitives":[
				{
					"attributes":{
						"POSITION":49,
						"NORMAL":50,
						"TEXCOORD_0":51,
						"TEXCOORD_1":52,
						"TEXCOORD_2":53,
						"TEXCOORD_3":54
					},
					"indices":55,
					"material":2
				}
			]
		},
		{
			"name":"Object_9",
			"primitives":[
				{
					"attributes":{
						"POSITION":56,
						"NORMAL":57,
						"TEXCOORD_0":58,
						"TEXCOORD_1":59,
						"TEXCOORD_2":60,
						"TEXCOORD_3":61
					},
					"indices":62,
					"material":3
				}
			]
		},
		{
			"name":"Object_10",
			"primitives":[
				{
					"attributes":{
						"POSITION":63,
						"NORMAL":64,
						"TEXCOORD_0":65,
						"TEXCOORD_1":66,
						"TEXCOORD_2":67,
						"TEXCOORD_3":68
					},
					"indices":69,
					"material":4
				}
			]
		},
		{
			"name":"Object_7.001",
			"primitives":[
				{
					"attributes":{
						"POSITION":70,
						"NORMAL":71,
						"TEXCOORD_0":72,
						"TEXCOORD_1":73,
						"TEXCOORD_2":74,
						"TEXCOORD_3":75
					},
					"indices":76,
					"material":2
				}
			]
		},
		{
			"name":"Object_7.002",
			"primitives":[
				{
					"attributes":{
						"POSITION":77,
						"NORMAL":78,
						"TEXCOORD_0":79,
						"TEXCOORD_1":80,
						"TEXCOORD_2":81,
						"TEXCOORD_3":82
					},
					"indices":83,
					"material":2
				}
			]
		}
	],
	"textures":[
		{
			"sampler":0,
			"source":0
		},
		{
			"sampler":0,
			"source":1
		},
		{
			"sampler":0,
			"source":2
		},
		{
			"sampler":0,
			"source":3
		},
		{
			"sampler":0,
			"source":4
		},
		{
			"sampler":0,
			"source":5
		},
		{
			"sampler":0,
			"source":6
		},
		{
			"sampler":0,
			"source":7
		},
		{
			"sampler":0,
			"source":8
		},
		{
			"sampler":0,
			"source":9
		},
		{
			"sampler":0,
			"source":10
		},
		{
			"sampler":0,
			"source":11
		},
		{
			"sampler":0,
			"source":12
		},
		{
			"sampler":0,
			"source":13
		}
	],
	"images":[
		{
			"mimeType":"image/png",
			"name":"Primary_Paint_normal.png",
			"uri":"textures/Primary_Paint_normal.png"
		},
		{
			"mimeType":"image/png",
			"name":"Primary_Paint_baseColor.png",
			"uri":"textures/Primary_Paint_baseColor.png"
		},
		{
			"mimeType":"image/png",
			"name":"Primary_Paint_metallicRoughness.png",
			"uri":"textures/Primary_Paint_metallicRoughness.png"
		},
		{
			"mimeType":"image/png",
			"name":"Seconday_Paint_normal.png",
			"uri":"textures/Seconday_Paint_normal.png"
		},
		{
			"mimeType":"image/png",
			"name":"Seconday_Paint_baseColor.png",
			"uri":"textures/Seconday_Paint_baseColor.png"
		},
		{
			"mimeType":"image/png",
			"name":"Seconday_Paint_metallicRoughness.png",
			"uri":"textures/Seconday_Paint_metallicRoughness.png"
		},
		{
			"mimeType":"image/png",
			"name":"Chrome_normal.png",
			"uri":"textures/Chrome_normal.png"
		},
		{
			"mimeType":"image/png",
			"name":"Chrome_baseColor.png",
			"uri":"textures/Chrome_baseColor.png"
		},
		{
			"mimeType":"image/png",
			"name":"Chrome_metallicRoughness.png",
			"uri":"textures/Chrome_metallicRoughness.png"
		},
		{
			"mimeType":"image/png",
			"name":"Plastic_normal.png",
			"uri":"textures/Plastic_normal.png"
		},
		{
			"mimeType":"image/png",
			"name":"Plastic_baseColor.png",
			"uri":"textures/Plastic_baseColor.png"
		},
		{
			"mimeType":"image/png",
			"name":"Plastic_metallicRoughness.png",
			"uri":"textures/Plastic_metallicRoughness.png"
		},
		{
			"mimeType":"image/png",
			"name":"Dark_areas_normal.png",
			"uri":"textures/Dark_areas_normal.png"
		},
		{
			"mimeType":"image/png",
			"name":"Dark_areas_baseColor.png",
			"uri":"textures/Dark_areas_baseColor.png"
		}
	],
	"accessors":[
		{
			"bufferView":0,
			"componentType":5126,
			"count":51514,
			"max":[
				218.33006286621094,
				59.60588836669922,
				106.7211685180664
			],
			"min":[
				-228.58328247070312,
				-43.662906646728516,
				-107.05840301513672
			],
			"type":"VEC3"
		},
		{
			"bufferView":1,
			"componentType":5126,
			"count":51514,
			"type":"VEC3"
		},
		{
			"bufferView":2,
			"componentType":5126,
			"count":51514,
			"type":"VEC2"
		},
		{
			"bufferView":3,
			"componentType":5126,
			"count":51514,
			"type":"VEC2"
		},
		{
			"bufferView":4,
			"componentType":5126,
			"count":51514,
			"type":"VEC2"
		},
		{
			"bufferView":5,
			"componentType":5126,
			"count":51514,
			"type":"VEC2"
		},
		{
			"bufferView":6,
			"componentType":5123,
			"count":246990,
			"type":"SCALAR"
		},
		{
			"bufferView":7,
			"componentType":5126,
			"count":68044,
			"max":[
				217.8786163330078,
				63.45094299316406,
				93.48300170898438
			],
			"min":[
				-226.13885498046875,
				-43.83864974975586,
				-93.57666015625
			],
			"type":"VEC3"
		},
		{
			"bufferView":8,
			"componentType":5126,
			"count":68044,
			"type":"VEC3"
		},
		{
			"bufferView":9,
			"componentType":5126,
			"count":68044,
			"type":"VEC2"
		},
		{
			"bufferView":10,
			"componentType":5126,
			"count":68044,
			"type":"VEC2"
		},
		{
			"bufferView":11,
			"componentType":5126,
			"count":68044,
			"type":"VEC2"
		},
		{
			"bufferView":12,
			"componentType":5126,
			"count":68044,
			"type":"VEC2"
		},
		{
			"bufferView":13,
			"componentType":5125,
			"count":279465,
			"type":"SCALAR"
		},
		{
			"bufferView":14,
			"componentType":5126,
			"count":67422,
			"max":[
				202.11631774902344,
				33.15454864501953,
				87.93971252441406
			],
			"min":[
				-204.4911651611328,
				-33.94707489013672,
				-89.53535461425781
			],
			"type":"VEC3"
		},
		{
			"bufferView":15,
			"componentType":5126,
			"count":67422,
			"type":"VEC3"
		},
		{
			"bufferView":16,
			"componentType":5126,
			"count":67422,
			"type":"VEC2"
		},
		{
			"bufferView":17,
			"componentType":5126,
			"count":67422,
			"type":"VEC2"
		},
		{
			"bufferView":18,
			"componentType":5126,
			"count":67422,
			"type":"VEC2"
		},
		{
			"bufferView":19,
			"componentType":5126,
			"count":67422,
			"type":"VEC2"
		},
		{
			"bufferView":20,
			"componentType":5125,
			"count":271854,
			"type":"SCALAR"
		},
		{
			"bufferView":21,
			"componentType":5126,
			"count":65973,
			"max":[
				202.22848510742188,
				35.81431579589844,
				93.12026977539062
			],
			"min":[
				-229.7910919189453,
				-43.142303466796875,
				-93.23799896240234
			],
			"type":"VEC3"
		},
		{
			"bufferView":22,
			"componentType":5126,
			"count":65973,
			"type":"VEC3"
		},
		{
			"bufferView":23,
			"componentType":5126,
			"count":65973,
			"type":"VEC2"
		},
		{
			"bufferView":24,
			"componentType":5126,
			"count":65973,
			"type":"VEC2"
		},
		{
			"bufferView":25,
			"componentType":5126,
			"count":65973,
			"type":"VEC2"
		},
		{
			"bufferView":26,
			"componentType":5126,
			"count":65973,
			"type":"VEC2"
		},
		{
			"bufferView":27,
			"componentType":5125,
			"count":272409,
			"type":"SCALAR"
		},
		{
			"bufferView":28,
			"componentType":5126,
			"count":65902,
			"max":[
				214.85299682617188,
				61.724632263183594,
				86.37340545654297
			],
			"min":[
				-227.01609802246094,
				-42.60670471191406,
				-86.17422485351562
			],
			"type":"VEC3"
		},
		{
			"bufferView":29,
			"componentType":5126,
			"count":65902,
			"type":"VEC3"
		},
		{
			"bufferView":30,
			"componentType":5126,
			"count":65902,
			"type":"VEC2"
		},
		{
			"bufferView":31,
			"componentType":5126,
			"count":65902,
			"type":"VEC2"
		},
		{
			"bufferView":32,
			"componentType":5126,
			"count":65902,
			"type":"VEC2"
		},
		{
			"bufferView":33,
			"componentType":5126,
			"count":65902,
			"type":"VEC2"
		},
		{
			"bufferView":34,
			"componentType":5125,
			"count":268755,
			"type":"SCALAR"
		},
		{
			"bufferView":35,
			"componentType":5126,
			"count":20818,
			"max":[
				202.22410583496094,
				27.838890075683594,
				86.37904357910156
			],
			"min":[
				184.15965270996094,
				-33.9459228515625,
				-84.03546905517578
			],
			"type":"VEC3"
		},
		{
			"bufferView":36,
			"componentType":5126,
			"count":20818,
			"type":"VEC3"
		},
		{
			"bufferView":37,
			"componentType":5126,
			"count":20818,
			"type":"VEC2"
		},
		{
			"bufferView":38,
			"componentType":5126,
			"count":20818,
			"type":"VEC2"
		},
		{
			"bufferView":39,
			"componentType":5126,
			"count":20818,
			"type":"VEC2"
		},
		{
			"bufferView":40,
			"componentType":5126,
			"count":20818,
			"type":"VEC2"
		},
		{
			"bufferView":41,
			"componentType":5123,
			"count":38889,
			"type":"SCALAR"
		},
		{
			"bufferView":42,
			"componentType":5126,
			"count":66419,
			"max":[
				218.1996307373047,
				37.44012451171875,
				104.92506408691406
			],
			"min":[
				-221.08827209472656,
				-33.18091583251953,
				-105.30315399169922
			],
			"type":"VEC3"
		},
		{
			"bufferView":43,
			"componentType":5126,
			"count":66419,
			"type":"VEC3"
		},
		{
			"bufferView":44,
			"componentType":5126,
			"count":66419,
			"type":"VEC2"
		},
		{
			"bufferView":45,
			"componentType":5126,
			"count":66419,
			"type":"VEC2"
		},
		{
			"bufferView":46,
			"componentType":5126,
			"count":66419,
			"type":"VEC2"
		},
		{
			"bufferView":47,
			"componentType":5126,
			"count":66419,
			"type":"VEC2"
		},
		{
			"bufferView":48,
			"componentType":5125,
			"count":259116,
			"type":"SCALAR"
		},
		{
			"bufferView":49,
			"componentType":5126,
			"count":21689,
			"max":[
				213.327392578125,
				-22.12293815612793,
				22.560062408447266
			],
			"min":[
				188.9503936767578,
				-33.18091583251953,
				-23.232187271118164
			],
			"type":"VEC3"
		},
		{
			"bufferView":50,
			"componentType":5126,
			"count":21689,
			"type":"VEC3"
		},
		{
			"bufferView":51,
			"componentType":5126,
			"count":21689,
			"type":"VEC2"
		},
		{
			"bufferView":52,
			"componentType":5126,
			"count":21689,
			"type":"VEC2"
		},
		{
			"bufferView":53,
			"componentType":5126,
			"count":21689,
			"type":"VEC2"
		},
		{
			"bufferView":54,
			"componentType":5126,
			"count":21689,
			"type":"VEC2"
		},
		{
			"bufferView":55,
			"componentType":5123,
			"count":75066,
			"type":"SCALAR"
		},
		{
			"bufferView":56,
			"componentType":5126,
			"count":32127,
			"max":[
				213.7556610107422,
				61.501556396484375,
				91.92550659179688
			],
			"min":[
				-202.9791717529297,
				-47.16754913330078,
				-92.50977325439453
			],
			"type":"VEC3"
		},
		{
			"bufferView":57,
			"componentType":5126,
			"count":32127,
			"type":"VEC3"
		},
		{
			"bufferView":58,
			"componentType":5126,
			"count":32127,
			"type":"VEC2"
		},
		{
			"bufferView":59,
			"componentType":5126,
			"count":32127,
			"type":"VEC2"
		},
		{
			"bufferView":60,
			"componentType":5126,
			"count":32127,
			"type":"VEC2"
		},
		{
			"bufferView":61,
			"componentType":5126,
			"count":32127,
			"type":"VEC2"
		},
		{
			"bufferView":62,
			"componentType":5123,
			"count":131724,
			"type":"SCALAR"
		},
		{
			"bufferView":63,
			"componentType":5126,
			"count":22403,
			"max":[
				205.88966369628906,
				59.4295654296875,
				92.89979553222656
			],
			"min":[
				-226.16513061523438,
				-43.453216552734375,
				-93.40852355957031
			],
			"type":"VEC3"
		},
		{
			"bufferView":64,
			"componentType":5126,
			"count":22403,
			"type":"VEC3"
		},
		{
			"bufferView":65,
			"componentType":5126,
			"count":22403,
			"type":"VEC2"
		},
		{
			"bufferView":66,
			"componentType":5126,
			"count":22403,
			"type":"VEC2"
		},
		{
			"bufferView":67,
			"componentType":5126,
			"count":22403,
			"type":"VEC2"
		},
		{
			"bufferView":68,
			"componentType":5126,
			"count":22403,
			"type":"VEC2"
		},
		{
			"bufferView":69,
			"componentType":5123,
			"count":95982,
			"type":"SCALAR"
		},
		{
			"bufferView":70,
			"componentType":5126,
			"count":303,
			"max":[
				-4.466184139251709,
				36.12841796875,
				-90.85326385498047
			],
			"min":[
				-10.041972160339355,
				26.447532653808594,
				-105.26708221435547
			],
			"type":"VEC3"
		},
		{
			"bufferView":71,
			"componentType":5126,
			"count":303,
			"type":"VEC3"
		},
		{
			"bufferView":72,
			"componentType":5126,
			"count":303,
			"type":"VEC2"
		},
		{
			"bufferView":73,
			"componentType":5126,
			"count":303,
			"type":"VEC2"
		},
		{
			"bufferView":74,
			"componentType":5126,
			"count":303,
			"type":"VEC2"
		},
		{
			"bufferView":75,
			"componentType":5126,
			"count":303,
			"type":"VEC2"
		},
		{
			"bufferView":76,
			"componentType":5123,
			"count":678,
			"type":"SCALAR"
		},
		{
			"bufferView":77,
			"componentType":5126,
			"count":251,
			"max":[
				-4.314793586730957,
				36.12841796875,
				104.96155548095703
			],
			"min":[
				-9.911336898803711,
				26.447532653808594,
				90.51959228515625
			],
			"type":"VEC3"
		},
		{
			"bufferView":78,
			"componentType":5126,
			"count":251,
			"type":"VEC3"
		},
		{
			"bufferView":79,
			"componentType":5126,
			"count":251,
			"type":"VEC2"
		},
		{
			"bufferView":80,
			"componentType":5126,
			"count":251,
			"type":"VEC2"
		},
		{
			"bufferView":81,
			"componentType":5126,
			"count":251,
			"type":"VEC2"
		},
		{
			"bufferView":82,
			"componentType":5126,
			"count":251,
			"type":"VEC2"
		},
		{
			"bufferView":83,
			"componentType":5123,
			"count":690,
			"type":"SCALAR"
		}
	],
	"bufferViews":[
		{
			"buffer":0,
			"byteLength":618168,
			"byteOffset":0,
			"target":34962
		},
		{
			"buffer":0,
			"byteLength":618168,
			"byteOffset":618168,
			"target":34962
		},
		{
			"buffer":0,
			"byteLength":412112,
			"byteOffset":1236336,
			"target":34962
		},
		{
			"buffer":0,
			"byteLength":412112,
			"byteOffset":1648448,
			"target":34962
		},
		{
			"buffer":0,
			"byteLength":412112,
			"byteOffset":2060560,
			"target":34962
		},
		{
			"buffer":0,
			"byteLength":412112,
			"byteOffset":2472672,
			"target":34962
		},
		{
			"buffer":0,
			"byteLength":493980,
			"byteOffset":2884784,
			"target":34963
		},
		{
			"buffer":0,
			"byteLength":816528,
			"byteOffset":3378764,
			"target":34962
		},
		{
			"buffer":0,
			"byteLength":816528,
			"byteOffset":4195292,
			"target":34962
		},
		{
			"buffer":0,
			"byteLength":544352,
			"byteOffset":5011820,
			"target":34962
		},
		{
			"buffer":0,
			"byteLength":544352,
			"byteOffset":5556172,
			"target":34962
		},
		{
			"buffer":0,
			"byteLength":544352,
			"byteOffset":6100524,
			"target":34962
		},
		{
			"buffer":0,
			"byteLength":544352,
			"byteOffset":6644876,
			"target":34962
		},
		{
			"buffer":0,
			"byteLength":1117860,
			"byteOffset":7189228,
			"target":34963
		},
		{
			"buffer":0,
			"byteLength":809064,
			"byteOffset":8307088,
			"target":34962
		},
		{
			"buffer":0,
			"byteLength":809064,
			"byteOffset":9116152,
			"target":34962
		},
		{
			"buffer":0,
			"byteLength":539376,
			"byteOffset":9925216,
			"target":34962
		},
		{
			"buffer":0,
			"byteLength":539376,
			"byteOffset":10464592,
			"target":34962
		},
		{
			"buffer":0,
			"byteLength":539376,
			"byteOffset":11003968,
			"target":34962
		},
		{
			"buffer":0,
			"byteLength":539376,
			"byteOffset":11543344,
			"target":34962
		},
		{
			"buffer":0,
			"byteLength":1087416,
			"byteOffset":12082720,
			"target":34963
		},
		{
			"buffer":0,
			"byteLength":791676,
			"byteOffset":13170136,
			"target":34962
		},
		{
			"buffer":0,
			"byteLength":791676,
			"byteOffset":13961812,
			"target":34962
		},
		{
			"buffer":0,
			"byteLength":527784,
			"byteOffset":14753488,
			"target":34962
		},
		{
			"buffer":0,
			"byteLength":527784,
			"byteOffset":15281272,
			"target":34962
		},
		{
			"buffer":0,
			"byteLength":527784,
			"byteOffset":15809056,
			"target":34962
		},
		{
			"buffer":0,
			"byteLength":527784,
			"byteOffset":16336840,
			"target":34962
		},
		{
			"buffer":0,
			"byteLength":1089636,
			"byteOffset":16864624,
			"target":34963
		},
		{
			"buffer":0,
			"byteLength":790824,
			"byteOffset":17954260,
			"target":34962
		},
		{
			"buffer":0,
			"byteLength":790824,
			"byteOffset":18745084,
			"target":34962
		},
		{
			"buffer":0,
			"byteLength":527216,
			"byteOffset":19535908,
			"target":34962
		},
		{
			"buffer":0,
			"byteLength":527216,
			"byteOffset":20063124,
			"target":34962
		},
		{
			"buffer":0,
			"byteLength":527216,
			"byteOffset":20590340,
			"target":34962
		},
		{
			"buffer":0,
			"byteLength":527216,
			"byteOffset":21117556,
			"target":34962
		},
		{
			"buffer":0,
			"byteLength":1075020,
			"byteOffset":21644772,
			"target":34963
		},
		{
			"buffer":0,
			"byteLength":249816,
			"byteOffset":22719792,
			"target":34962
		},
		{
			"buffer":0,
			"byteLength":249816,
			"byteOffset":22969608,
			"target":34962
		},
		{
			"buffer":0,
			"byteLength":166544,
			"byteOffset":23219424,
			"target":34962
		},
		{
			"buffer":0,
			"byteLength":166544,
			"byteOffset":23385968,
			"target":34962
		},
		{
			"buffer":0,
			"byteLength":166544,
			"byteOffset":23552512,
			"target":34962
		},
		{
			"buffer":0,
			"byteLength":166544,
			"byteOffset":23719056,
			"target":34962
		},
		{
			"buffer":0,
			"byteLength":77778,
			"byteOffset":23885600,
			"target":34963
		},
		{
			"buffer":0,
			"byteLength":797028,
			"byteOffset":23963380,
			"target":34962
		},
		{
			"buffer":0,
			"byteLength":797028,
			"byteOffset":24760408,
			"target":34962
		},
		{
			"buffer":0,
			"byteLength":531352,
			"byteOffset":25557436,
			"target":34962
		},
		{
			"buffer":0,
			"byteLength":531352,
			"byteOffset":26088788,
			"target":34962
		},
		{
			"buffer":0,
			"byteLength":531352,
			"byteOffset":26620140,
			"target":34962
		},
		{
			"buffer":0,
			"byteLength":531352,
			"byteOffset":27151492,
			"target":34962
		},
		{
			"buffer":0,
			"byteLength":1036464,
			"byteOffset":27682844,
			"target":34963
		},
		{
			"buffer":0,
			"byteLength":260268,
			"byteOffset":28719308,
			"target":34962
		},
		{
			"buffer":0,
			"byteLength":260268,
			"byteOffset":28979576,
			"target":34962
		},
		{
			"buffer":0,
			"byteLength":173512,
			"byteOffset":29239844,
			"target":34962
		},
		{
			"buffer":0,
			"byteLength":173512,
			"byteOffset":29413356,
			"target":34962
		},
		{
			"buffer":0,
			"byteLength":173512,
			"byteOffset":29586868,
			"target":34962
		},
		{
			"buffer":0,
			"byteLength":173512,
			"byteOffset":29760380,
			"target":34962
		},
		{
			"buffer":0,
			"byteLength":150132,
			"byteOffset":29933892,
			"target":34963
		},
		{
			"buffer":0,
			"byteLength":385524,
			"byteOffset":30084024,
			"target":34962
		},
		{
			"buffer":0,
			"byteLength":385524,
			"byteOffset":30469548,
			"target":34962
		},
		{
			"buffer":0,
			"byteLength":257016,
			"byteOffset":30855072,
			"target":34962
		},
		{
			"buffer":0,
			"byteLength":257016,
			"byteOffset":31112088,
			"target":34962
		},
		{
			"buffer":0,
			"byteLength":257016,
			"byteOffset":31369104,
			"target":34962
		},
		{
			"buffer":0,
			"byteLength":257016,
			"byteOffset":31626120,
			"target":34962
		},
		{
			"buffer":0,
			"byteLength":263448,
			"byteOffset":31883136,
			"target":34963
		},
		{
			"buffer":0,
			"byteLength":268836,
			"byteOffset":32146584,
			"target":34962
		},
		{
			"buffer":0,
			"byteLength":268836,
			"byteOffset":32415420,
			"target":34962
		},
		{
			"buffer":0,
			"byteLength":179224,
			"byteOffset":32684256,
			"target":34962
		},
		{
			"buffer":0,
			"byteLength":179224,
			"byteOffset":32863480,
			"target":34962
		},
		{
			"buffer":0,
			"byteLength":179224,
			"byteOffset":33042704,
			"target":34962
		},
		{
			"buffer":0,
			"byteLength":179224,
			"byteOffset":33221928,
			"target":34962
		},
		{
			"buffer":0,
			"byteLength":191964,
			"byteOffset":33401152,
			"target":34963
		},
		{
			"buffer":0,
			"byteLength":3636,
			"byteOffset":33593116,
			"target":34962
		},
		{
			"buffer":0,
			"byteLength":3636,
			"byteOffset":33596752,
			"target":34962
		},
		{
			"buffer":0,
			"byteLength":2424,
			"byteOffset":33600388,
			"target":34962
		},
		{
			"buffer":0,
			"byteLength":2424,
			"byteOffset":33602812,
			"target":34962
		},
		{
			"buffer":0,
			"byteLength":2424,
			"byteOffset":33605236,
			"target":34962
		},
		{
			"buffer":0,
			"byteLength":2424,
			"byteOffset":33607660,
			"target":34962
		},
		{
			"buffer":0,
			"byteLength":1356,
			"byteOffset":33610084,
			"target":34963
		},
		{
			"buffer":0,
			"byteLength":3012,
			"byteOffset":33611440,
			"target":34962
		},
		{
			"buffer":0,
			"byteLength":3012,
			"byteOffset":33614452,
			"target":34962
		},
		{
			"buffer":0,
			"byteLength":2008,
			"byteOffset":33617464,
			"target":34962
		},
		{
			"buffer":0,
			"byteLength":2008,
			"byteOffset":33619472,
			"target":34962
		},
		{
			"buffer":0,
			"byteLength":2008,
			"byteOffset":33621480,
			"target":34962
		},
		{
			"buffer":0,
			"byteLength":2008,
			"byteOffset":33623488,
			"target":34962
		},
		{
			"buffer":0,
			"byteLength":1380,
			"byteOffset":33625496,
			"target":34963
		}
	],
	"samplers":[
		{
			"magFilter":9729,
			"minFilter":9987
		}
	],
	"buffers":[
		{
			"byteLength":33626876,
			"uri":"scene.bin"
		}
	]
}
