{
  "accessors": [
    {
      "bufferView": 2,
      "componentType": 5126,
      "count": 60429,
      "max": [
        0.24136577546596527,
        0.48477473855018616,
        0.10692926496267319
      ],
      "min": [
        -0.24227295815944672,
        0.0011424312833696604,
        -0.10197437554597855
      ],
      "type": "VEC3"
    },
    {
      "bufferView": 2,
      "byteOffset": 725148,
      "componentType": 5126,
      "count": 60429,
      "max": [
        1.0,
        1.0,
        1.0
      ],
      "min": [
        -1.0,
        -1.0,
        -1.0
      ],
      "type": "VEC3"
    },
    {
      "bufferView": 3,
      "componentType": 5126,
      "count": 60429,
      "max": [
        1.0,
        1.0,
        1.0,
        1.0
      ],
      "min": [
        -1.0,
        -1.0,
        -1.0,
        -1.0
      ],
      "type": "VEC4"
    },
    {
      "bufferView": 1,
      "componentType": 5126,
      "count": 60429,
      "max": [
        0.9943230152130127,
        0.998443067073822
      ],
      "min": [
        0.0015568881062790751,
        0.0015569329261779785
      ],
      "type": "VEC2"
    },
    {
      "bufferView": 1,
      "byteOffset": 483432,
      "componentType": 5126,
      "count": 60429,
      "max": [
        0.9943230152130127,
        0.998443067073822
      ],
      "min": [
        0.0015568881062790751,
        0.0015569329261779785
      ],
      "type": "VEC2"
    },
    {
      "bufferView": 1,
      "byteOffset": 966864,
      "componentType": 5126,
      "count": 60429,
      "max": [
        0.9943230152130127,
        0.998443067073822
      ],
      "min": [
        0.0015568881062790751,
        0.0015569329261779785
      ],
      "type": "VEC2"
    },
    {
      "bufferView": 1,
      "byteOffset": 1450296,
      "componentType": 5126,
      "count": 60429,
      "max": [
        0.9943230152130127,
        0.998443067073822
      ],
      "min": [
        0.0015568881062790751,
        0.0015569329261779785
      ],
      "type": "VEC2"
    },
    {
      "bufferView": 0,
      "componentType": 5125,
      "count": 290841,
      "type": "SCALAR"
    },
    {
      "bufferView": 2,
      "byteOffset": 1450296,
      "componentType": 5126,
      "count": 41,
      "max": [
        0.01780543476343155,
        0.26127228140830994,
        0.07754731923341751
      ],
      "min": [
        -0.018750552088022232,
        0.22471627593040466,
        0.07537072896957397
      ],
      "type": "VEC3"
    },
    {
      "bufferView": 2,
      "byteOffset": 1450788,
      "componentType": 5126,
      "count": 41,
      "max": [
        0.2597968280315399,
        0.2597968280315399,
        1.0
      ],
      "min": [
        -0.2597968280315399,
        -0.2597968280315399,
        0.9647882580757141
      ],
      "type": "VEC3"
    },
    {
      "bufferView": 1,
      "byteOffset": 1933728,
      "componentType": 5126,
      "count": 41,
      "max": [
        0.49160394072532654,
        0.027481257915496826
      ],
      "min": [
        0.4698638319969177,
        0.0057411789894104
      ],
      "type": "VEC2"
    },
    {
      "bufferView": 0,
      "byteOffset": 1163364,
      "componentType": 5125,
      "count": 192,
      "type": "SCALAR"
    }
  ],
  "asset": {
    "extras": {
      "author": "Uder Gidro (https://sketchfab.com/ertere10)",
      "license": "SKETCHFAB Standard (https://sketchfab.com/licenses)",
      "source": "https://sketchfab.com/3d-models/wheel-33e25594a8f440dba8b33ef4551ca38d",
      "title": "WHEEL"
    },
    "generator": "Sketchfab-16.73.0",
    "version": "2.0"
  },
  "bufferViews": [
    {
      "buffer": 0,
      "byteLength": 1164132,
      "name": "floatBufferViews",
      "target": 34963
    },
    {
      "buffer": 0,
      "byteLength": 1934056,
      "byteOffset": 1164132,
      "byteStride": 8,
      "name": "floatBufferViews",
      "target": 34962
    },
    {
      "buffer": 0,
      "byteLength": 1451280,
      "byteOffset": 3098188,
      "byteStride": 12,
      "name": "floatBufferViews",
      "target": 34962
    },
    {
      "buffer": 0,
      "byteLength": 966864,
      "byteOffset": 4549468,
      "byteStride": 16,
      "name": "floatBufferViews",
      "target": 34962
    }
  ],
  "buffers": [
    {
      "byteLength": 5516332,
      "uri": "scene.bin"
    }
  ],
  "extensionsUsed": [
    "KHR_materials_specular"
  ],
  "images": [
    {
      "uri": "textures/Wheel_baseColor.jpeg"
    },
    {
      "uri": "textures/Wheel_metallicRoughness.png"
    },
    {
      "uri": "textures/Wheel_normal.jpeg"
    },
    {
      "uri": "textures/Wheel_specularf0.png"
    }
  ],
  "materials": [
    {
      "doubleSided": true,
      "extensions": {
        "KHR_materials_specular": {
          "specularColorFactor": [
            1.0,
            1.0,
            1.0
          ],
          "specularFactor": 1.0,
          "specularTexture": {
            "index": 3
          }
        }
      },
      "name": "Wheel",
      "normalTexture": {
        "index": 2
      },
      "pbrMetallicRoughness": {
        "baseColorTexture": {
          "index": 0
        },
        "metallicRoughnessTexture": {
          "index": 1
        }
      }
    },
    {
      "doubleSided": true,
      "name": "Material.002",
      "pbrMetallicRoughness": {
        "baseColorFactor": [
          0.0,
          0.0,
          0.0,
          1.0
        ],
        "metallicFactor": 0.246032,
        "roughnessFactor": 0.5
      }
    }
  ],
  "meshes": [
    {
      "name": "Object_0",
      "primitives": [
        {
          "attributes": {
            "NORMAL": 1,
            "POSITION": 0,
            "TANGENT": 2,
            "TEXCOORD_0": 3,
            "TEXCOORD_1": 4,
            "TEXCOORD_2": 5,
            "TEXCOORD_3": 6
          },
          "indices": 7,
          "material": 0,
          "mode": 4
        }
      ]
    },
    {
      "name": "Object_1",
      "primitives": [
        {
          "attributes": {
            "NORMAL": 9,
            "POSITION": 8,
            "TEXCOORD_0": 10
          },
          "indices": 11,
          "material": 1,
          "mode": 4
        }
      ]
    }
  ],
  "nodes": [
    {
      "children": [
        1
      ],
      "matrix": [
        1.0,
        0.0,
        0.0,
        0.0,
        0.0,
        2.220446049250313e-16,
        -1.0,
        0.0,
        0.0,
        1.0,
        2.220446049250313e-16,
        0.0,
        0.0,
        0.0,
        0.0,
        1.0
      ],
      "name": "Sketchfab_model"
    },
    {
      "children": [
        2
      ],
      "name": "root"
    },
    {
      "children": [
        3
      ],
      "matrix": [
        1.0,
        0.0,
        0.0,
        0.0,
        0.0,
        2.220446049250313e-16,
        1.0,
        0.0,
        0.0,
        -1.0,
        2.220446049250313e-16,
        0.0,
        0.0,
        0.0,
        0.0,
        1.0
      ],
      "name": "GLTF_SceneRootNode"
    },
    {
      "children": [
        4
      ],
      "name": "2020 Audi RS7 Sportback Wheel_1"
    },
    {
      "children": [
        5,
        6
      ],
      "matrix": [
        1.0,
        0.0,
        0.0,
        0.0,
        0.0,
        1.0,
        0.0,
        0.0,
        0.0,
        0.0,
        1.0,
        0.0,
        0.0,
        0.0,
        -0.0008053923957049847,
        1.0
      ],
      "name": "2020 Audi RS7 Sportback Wheel.001_0"
    },
    {
      "mesh": 0,
      "name": "Object_5"
    },
    {
      "mesh": 1,
      "name": "Object_6"
    }
  ],
  "samplers": [
    {
      "magFilter": 9729,
      "minFilter": 9987,
      "wrapS": 10497,
      "wrapT": 10497
    }
  ],
  "scene": 0,
  "scenes": [
    {
      "name": "Sketchfab_Scene",
      "nodes": [
        0
      ]
    }
  ],
  "textures": [
    {
      "sampler": 0,
      "source": 0
    },
    {
      "sampler": 0,
      "source": 1
    },
    {
      "sampler": 0,
      "source": 2
    },
    {
      "sampler": 0,
      "source": 3
    }
  ]
}
