{
	"asset":{
		"generator":"Khronos glTF Blender I/O v4.5.48",
		"version":"2.0"
	},
	"extensionsUsed":[
		"KHR_materials_specular"
	],
	"scene":0,
	"scenes":[
		{
			"name":"Scene",
			"nodes":[
				5
			]
		}
	],
	"nodes":[
		{
			"mesh":0,
			"name":"Object_5",
			"translation":[
				-0.0788503885269165,
				0.0027327104471623898,
				0.018677493557333946
			]
		},
		{
			"children":[
				0
			],
			"name":"2020 Audi RS7 Sportback Wheel.001_0"
		},
		{
			"children":[
				1
			],
			"name":"2020 Audi RS7 Sportback Wheel_1"
		},
		{
			"children":[
				2
			],
			"name":"GLTF_SceneRootNode"
		},
		{
			"children":[
				3
			],
			"name":"root"
		},
		{
			"children":[
				4
			],
			"name":"Sketchfab_model"
		}
	],
	"materials":[
		{
			"doubleSided":true,
			"extensions":{
				"KHR_materials_specular":{
					"specularTexture":{
						"index":0
					}
				}
			},
			"name":"Wheel",
			"normalTexture":{
				"index":1
			},
			"pbrMetallicRoughness":{
				"baseColorTexture":{
					"index":2
				},
				"metallicRoughnessTexture":{
					"index":3
				}
			}
		}
	],
	"meshes":[
		{
			"name":"Object_0",
			"primitives":[
				{
					"attributes":{
						"POSITION":0,
						"NORMAL":1,
						"TEXCOORD_0":2,
						"TEXCOORD_1":3,
						"TEXCOORD_2":4,
						"TEXCOORD_3":5
					},
					"indices":6,
					"material":0
				}
			]
		}
	],
	"textures":[
		{
			"sampler":0,
			"source":0
		},
		{
			"sampler":0,
			"source":1
		},
		{
			"sampler":0,
			"source":2
		},
		{
			"sampler":0,
			"source":3
		}
	],
	"images":[
		{
			"mimeType":"image/png",
			"name":"Wheel_specularf0",
			"uri":"Wheel_specularf0.png"
		},
		{
			"mimeType":"image/jpeg",
			"name":"Wheel_normal",
			"uri":"Wheel_normal.jpg"
		},
		{
			"mimeType":"image/jpeg",
			"name":"Wheel_baseColor",
			"uri":"Wheel_baseColor.jpg"
		},
		{
			"mimeType":"image/png",
			"name":"Wheel_metallicRoughness",
			"uri":"Wheel_metallicRoughness.png"
		}
	],
	"accessors":[
		{
			"bufferView":0,
			"componentType":5126,
			"count":66015,
			"max":[
				0.18283012509346008,
				0.23887236416339874,
				0.24070222675800323
			],
			"min":[
				-0.027011848986148834,
				-0.24507497251033783,
				-0.24303914606571198
			],
			"type":"VEC3"
		},
		{
			"bufferView":1,
			"componentType":5126,
			"count":66015,
			"type":"VEC3"
		},
		{
			"bufferView":2,
			"componentType":5126,
			"count":66015,
			"type":"VEC2"
		},
		{
			"bufferView":3,
			"componentType":5126,
			"count":66015,
			"type":"VEC2"
		},
		{
			"bufferView":4,
			"componentType":5126,
			"count":66015,
			"type":"VEC2"
		},
		{
			"bufferView":5,
			"componentType":5126,
			"count":66015,
			"type":"VEC2"
		},
		{
			"bufferView":6,
			"componentType":5125,
			"count":290841,
			"type":"SCALAR"
		}
	],
	"bufferViews":[
		{
			"buffer":0,
			"byteLength":792180,
			"byteOffset":0,
			"target":34962
		},
		{
			"buffer":0,
			"byteLength":792180,
			"byteOffset":792180,
			"target":34962
		},
		{
			"buffer":0,
			"byteLength":528120,
			"byteOffset":1584360,
			"target":34962
		},
		{
			"buffer":0,
			"byteLength":528120,
			"byteOffset":2112480,
			"target":34962
		},
		{
			"buffer":0,
			"byteLength":528120,
			"byteOffset":2640600,
			"target":34962
		},
		{
			"buffer":0,
			"byteLength":528120,
			"byteOffset":3168720,
			"target":34962
		},
		{
			"buffer":0,
			"byteLength":1163364,
			"byteOffset":3696840,
			"target":34963
		}
	],
	"samplers":[
		{
			"magFilter":9729,
			"minFilter":9987
		}
	],
	"buffers":[
		{
			"byteLength":4860204,
			"uri":"wheel.bin"
		}
	]
}
