{
	"asset":{
		"generator":"Khronos glTF Blender I/O v4.5.48",
		"version":"2.0"
	},
	"extensionsUsed":[
		"KHR_materials_specular",
		"KHR_materials_ior"
	],
	"scene":0,
	"scenes":[
		{
			"name":"Scene",
			"nodes":[
				0
			]
		}
	],
	"nodes":[
		{
			"mesh":0,
			"name":"House11_Atlas_0",
			"rotation":[
				-0.7071068286895752,
				0,
				0,
				0.7071068286895752
			],
			"translation":[
				-60.00028991699219,
				-2.8610236313397763e-06,
				49.99961471557617
			]
		}
	],
	"materials":[
		{
			"doubleSided":true,
			"extensions":{
				"KHR_materials_specular":{
					"specularColorFactor":[
						0.013807804323732853,
						0.002311880700290203,
						0.0
					]
				},
				"KHR_materials_ior":{
					"ior":1000
				}
			},
			"name":"Atlas",
			"normalTexture":{
				"index":0
			},
			"occlusionTexture":{
				"index":1
			},
			"pbrMetallicRoughness":{
				"baseColorTexture":{
					"index":2
				},
				"metallicFactor":0,
				"roughnessFactor":0.6402386426925659
			}
		}
	],
	"meshes":[
		{
			"name":"House11_Atlas_0",
			"primitives":[
				{
					"attributes":{
						"POSITION":0,
						"NORMAL":1,
						"TEXCOORD_0":2
					},
					"indices":3,
					"material":0
				}
			]
		}
	],
	"textures":[
		{
			"sampler":0,
			"source":0
		},
		{
			"sampler":0,
			"source":1
		},
		{
			"sampler":0,
			"source":2
		}
	],
	"images":[
		{
			"mimeType":"image/png",
			"name":"Atlas_normal.png",
			"uri":"../../../../../../../house-biblio/textures/Atlas_normal.png"
		},
		{
			"mimeType":"image/png",
			"name":"Atlas_occlusion.png",
			"uri":"../../../../../../../house-biblio/textures/Atlas_occlusion.png"
		},
		{
			"mimeType":"image/png",
			"name":"Atlas_diffuse.png",
			"uri":"../../../../../../../house-biblio/textures/Atlas_diffuse.png"
		}
	],
	"accessors":[
		{
			"bufferView":0,
			"componentType":5126,
			"count":1092,
			"max":[
				2.664318084716797,
				4.145814895629883,
				8.068551063537598
			],
			"min":[
				-5.54364013671875,
				-4.1590423583984375,
				-3.44897125614807e-06
			],
			"type":"VEC3"
		},
		{
			"bufferView":1,
			"componentType":5126,
			"count":1092,
			"type":"VEC3"
		},
		{
			"bufferView":2,
			"componentType":5126,
			"count":1092,
			"type":"VEC2"
		},
		{
			"bufferView":3,
			"componentType":5123,
			"count":1620,
			"type":"SCALAR"
		}
	],
	"bufferViews":[
		{
			"buffer":0,
			"byteLength":13104,
			"byteOffset":0,
			"target":34962
		},
		{
			"buffer":0,
			"byteLength":13104,
			"byteOffset":13104,
			"target":34962
		},
		{
			"buffer":0,
			"byteLength":8736,
			"byteOffset":26208,
			"target":34962
		},
		{
			"buffer":0,
			"byteLength":3240,
			"byteOffset":34944,
			"target":34963
		}
	],
	"samplers":[
		{
			"magFilter":9729,
			"minFilter":9987
		}
	],
	"buffers":[
		{
			"byteLength":38184,
			"uri":"scene.bin"
		}
	]
}
