{
	"asset":{
		"generator":"Khronos glTF Blender I/O v4.5.48",
		"version":"2.0"
	},
	"extensionsUsed":[
		"KHR_materials_specular",
		"KHR_materials_ior"
	],
	"scene":0,
	"scenes":[
		{
			"name":"Scene",
			"nodes":[
				0
			]
		}
	],
	"nodes":[
		{
			"mesh":0,
			"name":"House83_Atlas_0",
			"rotation":[
				-0.70710688829422,
				0,
				0,
				0.7071066498756409
			],
			"translation":[
				59.99971008300781,
				-2.8610236313397763e-06,
				-55.0003776550293
			]
		}
	],
	"materials":[
		{
			"doubleSided":true,
			"extensions":{
				"KHR_materials_specular":{
					"specularColorFactor":[
						0.013807804323732853,
						0.002311880700290203,
						0.0
					]
				},
				"KHR_materials_ior":{
					"ior":1000
				}
			},
			"name":"Atlas.019",
			"normalTexture":{
				"index":0
			},
			"occlusionTexture":{
				"index":1
			},
			"pbrMetallicRoughness":{
				"baseColorTexture":{
					"index":2
				},
				"metallicFactor":0,
				"roughnessFactor":0.6402386426925659
			}
		}
	],
	"meshes":[
		{
			"name":"House83_Atlas_0",
			"primitives":[
				{
					"attributes":{
						"POSITION":0,
						"NORMAL":1,
						"TEXCOORD_0":2
					},
					"indices":3,
					"material":0
				}
			]
		}
	],
	"textures":[
		{
			"sampler":0,
			"source":0
		},
		{
			"sampler":0,
			"source":1
		},
		{
			"sampler":0,
			"source":2
		}
	],
	"images":[
		{
			"mimeType":"image/png",
			"name":"Atlas_normal",
			"uri":"../../town_textures/textures/Atlas_normal.png"
		},
		{
			"mimeType":"image/png",
			"name":"Atlas_occlusion",
			"uri":"../../town_textures/textures/Atlas_occlusion.png"
		},
		{
			"mimeType":"image/png",
			"name":"Atlas_diffuse",
			"uri":"../../town_textures/textures/Atlas_diffuse.png"
		}
	],
	"accessors":[
		{
			"bufferView":0,
			"componentType":5126,
			"count":1087,
			"max":[
				3.9164352416992188,
				4.838718414306641,
				10.712376594543457
			],
			"min":[
				-4.83856201171875,
				-3.9166717529296875,
				-4.292905487091048e-06
			],
			"type":"VEC3"
		},
		{
			"bufferView":1,
			"componentType":5126,
			"count":1087,
			"type":"VEC3"
		},
		{
			"bufferView":2,
			"componentType":5126,
			"count":1087,
			"type":"VEC2"
		},
		{
			"bufferView":3,
			"componentType":5123,
			"count":1608,
			"type":"SCALAR"
		}
	],
	"bufferViews":[
		{
			"buffer":0,
			"byteLength":13044,
			"byteOffset":0,
			"target":34962
		},
		{
			"buffer":0,
			"byteLength":13044,
			"byteOffset":13044,
			"target":34962
		},
		{
			"buffer":0,
			"byteLength":8696,
			"byteOffset":26088,
			"target":34962
		},
		{
			"buffer":0,
			"byteLength":3216,
			"byteOffset":34784,
			"target":34963
		}
	],
	"samplers":[
		{
			"magFilter":9729,
			"minFilter":9987
		}
	],
	"buffers":[
		{
			"byteLength":38000,
			"uri":"scene.bin"
		}
	]
}
