{
  "accessors": [
    {
      "bufferView": 2,
      "componentType": 5126,
      "count": 46838,
      "max": [
        0.5571837425231934,
        0.5859894752502441,
        0.005851835012435913
      ],
      "min": [
        -0.5571835041046143,
        -0.4900439381599426,
        -0.38837963342666626
      ],
      "type": "VEC3"
    },
    {
      "bufferView": 2,
      "byteOffset": 562056,
      "componentType": 5126,
      "count": 46838,
      "max": [
        0.999968409538269,
        1.0,
        1.0
      ],
      "min": [
        -0.999968409538269,
        -1.0,
        -1.0
      ],
      "type": "VEC3"
    },
    {
      "bufferView": 3,
      "componentType": 5126,
      "count": 46838,
      "max": [
        0.9999850988388062,
        0.9999995231628418,
        1.0,
        1.0
      ],
      "min": [
        -1.0,
        -0.9999969601631165,
        -0.9999998807907104,
        -1.0
      ],
      "type": "VEC4"
    },
    {
      "bufferView": 1,
      "componentType": 5126,
      "count": 46838,
      "max": [
        0.9992380142211914,
        0.9998953938484192
      ],
      "min": [
        0.00024923746241256595,
        0.00010460615158081055
      ],
      "type": "VEC2"
    },
    {
      "bufferView": 1,
      "byteOffset": 374704,
      "componentType": 5126,
      "count": 46838,
      "max": [
        0.9992380142211914,
        0.9998953938484192
      ],
      "min": [
        0.00024923746241256595,
        0.00010460615158081055
      ],
      "type": "VEC2"
    },
    {
      "bufferView": 1,
      "byteOffset": 749408,
      "componentType": 5126,
      "count": 46838,
      "max": [
        0.9992380142211914,
        0.9998953938484192
      ],
      "min": [
        0.00024923746241256595,
        0.00010460615158081055
      ],
      "type": "VEC2"
    },
    {
      "bufferView": 1,
      "byteOffset": 1124112,
      "componentType": 5126,
      "count": 46838,
      "max": [
        0.9992380142211914,
        0.9998953938484192
      ],
      "min": [
        0.00024923746241256595,
        0.00010460615158081055
      ],
      "type": "VEC2"
    },
    {
      "bufferView": 0,
      "componentType": 5125,
      "count": 260934,
      "type": "SCALAR"
    }
  ],
  "asset": {
    "extras": {
      "author": "Markusfighter (https://sketchfab.com/Markusfighter)",
      "license": "SKETCHFAB Standard (https://sketchfab.com/licenses)",
      "source": "https://sketchfab.com/3d-models/lamborghini-huracan-steeringwheel-high-quality-78416201553f40cfa7fdc4a99548194f",
      "title": "Lamborghini Huracan Steeringwheel | High quality"
    },
    "generator": "Sketchfab-16.59.0",
    "version": "2.0"
  },
  "bufferViews": [
    {
      "buffer": 0,
      "byteLength": 1043736,
      "name": "floatBufferViews",
      "target": 34963
    },
    {
      "buffer": 0,
      "byteLength": 1498816,
      "byteOffset": 1043736,
      "byteStride": 8,
      "name": "floatBufferViews",
      "target": 34962
    },
    {
      "buffer": 0,
      "byteLength": 1124112,
      "byteOffset": 2542552,
      "byteStride": 12,
      "name": "floatBufferViews",
      "target": 34962
    },
    {
      "buffer": 0,
      "byteLength": 749408,
      "byteOffset": 3666664,
      "byteStride": 16,
      "name": "floatBufferViews",
      "target": 34962
    }
  ],
  "buffers": [
    {
      "byteLength": 4416072,
      "uri": "scene.bin"
    }
  ],
  "images": [
    {
      "uri": "textures/Material.003_baseColor.png"
    },
    {
      "uri": "textures/Material.003_metallicRoughness.png"
    },
    {
      "uri": "textures/Material.003_normal.png"
    }
  ],
  "materials": [
    {
      "doubleSided": true,
      "name": "Material.003",
      "normalTexture": {
        "index": 2
      },
      "pbrMetallicRoughness": {
        "baseColorTexture": {
          "index": 0
        },
        "metallicRoughnessTexture": {
          "index": 1
        }
      }
    }
  ],
  "meshes": [
    {
      "name": "Object_0",
      "primitives": [
        {
          "attributes": {
            "NORMAL": 1,
            "POSITION": 0,
            "TANGENT": 2,
            "TEXCOORD_0": 3,
            "TEXCOORD_1": 4,
            "TEXCOORD_2": 5,
            "TEXCOORD_3": 6
          },
          "indices": 7,
          "material": 0,
          "mode": 4
        }
      ]
    }
  ],
  "nodes": [
    {
      "children": [
        1
      ],
      "matrix": [
        1.0,
        0.0,
        0.0,
        0.0,
        0.0,
        2.220446049250313e-16,
        -1.0,
        0.0,
        0.0,
        1.0,
        2.220446049250313e-16,
        0.0,
        0.0,
        0.0,
        0.0,
        1.0
      ],
      "name": "Sketchfab_model"
    },
    {
      "children": [
        2
      ],
      "name": "root"
    },
    {
      "children": [
        3
      ],
      "matrix": [
        1.0,
        0.0,
        0.0,
        0.0,
        0.0,
        2.220446049250313e-16,
        1.0,
        0.0,
        0.0,
        -1.0,
        2.220446049250313e-16,
        0.0,
        0.0,
        0.0,
        0.0,
        1.0
      ],
      "name": "GLTF_SceneRootNode"
    },
    {
      "children": [
        4
      ],
      "matrix": [
        0.6871896386146545,
        0.0,
        0.0,
        0.0,
        0.0,
        0.6814957857131958,
        0.0,
        0.0,
        0.0,
        0.0,
        0.6712765693664551,
        0.0,
        0.0,
        0.0,
        0.0,
        1.0
      ],
      "name": "Steeringwheel_0"
    },
    {
      "mesh": 0,
      "name": "Object_4"
    }
  ],
  "samplers": [
    {
      "magFilter": 9729,
      "minFilter": 9987,
      "wrapS": 10497,
      "wrapT": 10497
    }
  ],
  "scene": 0,
  "scenes": [
    {
      "name": "Sketchfab_Scene",
      "nodes": [
        0
      ]
    }
  ],
  "textures": [
    {
      "sampler": 0,
      "source": 0
    },
    {
      "sampler": 0,
      "source": 1
    },
    {
      "sampler": 0,
      "source": 2
    }
  ]
}
