{
	"asset":{
		"generator":"Khronos glTF Blender I/O v4.5.48",
		"version":"2.0"
	},
	"scene":0,
	"scenes":[
		{
			"name":"Scene",
			"nodes":[
				10
			]
		}
	],
	"nodes":[
		{
			"mesh":0,
			"name":"brake_lights"
		},
		{
			"mesh":1,
			"name":"front_lights"
		},
		{
			"mesh":2,
			"name":"MirrorGlass_L"
		},
		{
			"mesh":3,
			"name":"MirrorGlass_R"
		},
		{
			"mesh":4,
			"name":"Object_4"
		},
		{
			"mesh":5,
			"name":"Object_5"
		},
		{
			"mesh":6,
			"name":"Object_6"
		},
		{
			"mesh":7,
			"name":"Object_8"
		},
		{
			"mesh":8,
			"name":"Object_8.001"
		},
		{
			"children":[
				0,
				1,
				2,
				3,
				4,
				5,
				6,
				7,
				8
			],
			"name":"Koenisegg one.obj.cleaner.materialmerger.gles"
		},
		{
			"children":[
				9
			],
			"name":"Sketchfab_model"
		}
	],
	"materials":[
		{
			"doubleSided":true,
			"emissiveFactor":[
				1,
				1,
				1
			],
			"emissiveTexture":{
				"index":0
			},
			"name":"lambert11SG",
			"normalTexture":{
				"index":1
			},
			"occlusionTexture":{
				"index":2
			},
			"pbrMetallicRoughness":{
				"baseColorTexture":{
					"index":3
				},
				"metallicRoughnessTexture":{
					"index":2
				}
			}
		},
		{
			"doubleSided":true,
			"emissiveFactor":[
				1,
				1,
				1
			],
			"emissiveTexture":{
				"index":4
			},
			"name":"lambert11SG.001",
			"normalTexture":{
				"index":5
			},
			"occlusionTexture":{
				"index":6
			},
			"pbrMetallicRoughness":{
				"baseColorTexture":{
					"index":7
				},
				"metallicRoughnessTexture":{
					"index":6
				}
			}
		},
		{
			"doubleSided":true,
			"name":"lambert12SG",
			"normalTexture":{
				"index":8
			},
			"occlusionTexture":{
				"index":9
			},
			"pbrMetallicRoughness":{
				"baseColorTexture":{
					"index":10
				},
				"metallicRoughnessTexture":{
					"index":9
				}
			}
		},
		{
			"alphaMode":"BLEND",
			"doubleSided":true,
			"name":"lambert13SG",
			"normalTexture":{
				"index":11
			},
			"occlusionTexture":{
				"index":12
			},
			"pbrMetallicRoughness":{
				"baseColorTexture":{
					"index":13
				},
				"metallicRoughnessTexture":{
					"index":12
				}
			}
		},
		{
			"doubleSided":true,
			"name":"lambert9SG",
			"normalTexture":{
				"index":14
			},
			"occlusionTexture":{
				"index":15
			},
			"pbrMetallicRoughness":{
				"baseColorTexture":{
					"index":16
				},
				"metallicRoughnessTexture":{
					"index":15
				}
			}
		}
	],
	"meshes":[
		{
			"name":"Object_2.001",
			"primitives":[
				{
					"attributes":{
						"POSITION":0,
						"NORMAL":1,
						"TEXCOORD_0":2,
						"COLOR_0":3,
						"COLOR_1":4
					},
					"indices":5,
					"material":0
				}
			]
		},
		{
			"name":"Object_2.004",
			"primitives":[
				{
					"attributes":{
						"POSITION":6,
						"NORMAL":7,
						"TEXCOORD_0":8
					},
					"indices":9,
					"material":1
				}
			]
		},
		{
			"name":"Object_2.002",
			"primitives":[
				{
					"attributes":{
						"POSITION":10,
						"NORMAL":11,
						"TEXCOORD_0":12
					},
					"indices":13,
					"material":1
				}
			]
		},
		{
			"name":"Object_2.003",
			"primitives":[
				{
					"attributes":{
						"POSITION":14,
						"NORMAL":15,
						"TEXCOORD_0":16
					},
					"indices":17,
					"material":1
				}
			]
		},
		{
			"name":"Object_2",
			"primitives":[
				{
					"attributes":{
						"POSITION":18,
						"NORMAL":19,
						"TEXCOORD_0":20
					},
					"indices":21,
					"material":1
				}
			]
		},
		{
			"name":"Object_3",
			"primitives":[
				{
					"attributes":{
						"POSITION":22,
						"NORMAL":23,
						"TEXCOORD_0":24
					},
					"indices":25,
					"material":2
				}
			]
		},
		{
			"name":"Object_4",
			"primitives":[
				{
					"attributes":{
						"POSITION":26,
						"NORMAL":27,
						"TEXCOORD_0":28
					},
					"indices":29,
					"material":3
				}
			]
		},
		{
			"name":"Object_6",
			"primitives":[
				{
					"attributes":{
						"POSITION":30,
						"NORMAL":31,
						"TEXCOORD_0":32
					},
					"indices":33,
					"material":4
				}
			]
		},
		{
			"name":"Object_6.001",
			"primitives":[
				{
					"attributes":{
						"POSITION":34,
						"NORMAL":35,
						"TEXCOORD_0":36
					},
					"indices":37,
					"material":4
				}
			]
		}
	],
	"textures":[
		{
			"sampler":0,
			"source":0
		},
		{
			"sampler":0,
			"source":1
		},
		{
			"sampler":0,
			"source":2
		},
		{
			"sampler":0,
			"source":3
		},
		{
			"sampler":0,
			"source":0
		},
		{
			"sampler":0,
			"source":1
		},
		{
			"sampler":0,
			"source":2
		},
		{
			"sampler":0,
			"source":3
		},
		{
			"sampler":0,
			"source":4
		},
		{
			"sampler":0,
			"source":5
		},
		{
			"sampler":0,
			"source":6
		},
		{
			"sampler":0,
			"source":7
		},
		{
			"sampler":0,
			"source":8
		},
		{
			"sampler":0,
			"source":9
		},
		{
			"sampler":0,
			"source":10
		},
		{
			"sampler":0,
			"source":11
		},
		{
			"sampler":0,
			"source":12
		}
	],
	"images":[
		{
			"mimeType":"image/png",
			"name":"lambert11SG_emissive.png",
			"uri":"textures/lambert11SG_emissive.png"
		},
		{
			"mimeType":"image/png",
			"name":"lambert11SG_normal.png",
			"uri":"textures/lambert11SG_normal.png"
		},
		{
			"mimeType":"image/png",
			"name":"lambert11SG_metallicRoughness.png",
			"uri":"textures/lambert11SG_metallicRoughness.png"
		},
		{
			"mimeType":"image/png",
			"name":"lambert11SG_baseColor.png",
			"uri":"textures/lambert11SG_baseColor.png"
		},
		{
			"mimeType":"image/png",
			"name":"lambert12SG_normal.png",
			"uri":"textures/lambert12SG_normal.png"
		},
		{
			"mimeType":"image/png",
			"name":"lambert12SG_metallicRoughness.png",
			"uri":"textures/lambert12SG_metallicRoughness.png"
		},
		{
			"mimeType":"image/png",
			"name":"lambert12SG_baseColor.png",
			"uri":"textures/lambert12SG_baseColor.png"
		},
		{
			"mimeType":"image/png",
			"name":"lambert10SG_normal.png",
			"uri":"textures/lambert10SG_normal.png"
		},
		{
			"mimeType":"image/png",
			"name":"lambert10SG_metallicRoughness.png",
			"uri":"textures/lambert10SG_metallicRoughness.png"
		},
		{
			"mimeType":"image/png",
			"name":"lambert13SG_baseColor.png",
			"uri":"textures/lambert13SG_baseColor.png"
		},
		{
			"mimeType":"image/png",
			"name":"lambert9SG_normal.png",
			"uri":"textures/lambert9SG_normal.png"
		},
		{
			"mimeType":"image/png",
			"name":"lambert9SG_metallicRoughness.png",
			"uri":"textures/lambert9SG_metallicRoughness.png"
		},
		{
			"mimeType":"image/png",
			"name":"lambert9SG_baseColor.png",
			"uri":"textures/lambert9SG_baseColor.png"
		}
	],
	"accessors":[
		{
			"bufferView":0,
			"componentType":5126,
			"count":2027,
			"max":[
				2.488996744155884,
				0.7726109027862549,
				1.0207072496414185
			],
			"min":[
				2.1908233165740967,
				0.31093326210975647,
				-1.0255659818649292
			],
			"type":"VEC3"
		},
		{
			"bufferView":1,
			"componentType":5126,
			"count":2027,
			"type":"VEC3"
		},
		{
			"bufferView":2,
			"componentType":5126,
			"count":2027,
			"type":"VEC2"
		},
		{
			"bufferView":3,
			"componentType":5126,
			"count":2027,
			"type":"VEC3"
		},
		{
			"bufferView":4,
			"componentType":5123,
			"count":2027,
			"normalized":true,
			"type":"VEC4"
		},
		{
			"bufferView":5,
			"componentType":5123,
			"count":7449,
			"type":"SCALAR"
		},
		{
			"bufferView":6,
			"componentType":5126,
			"count":1411,
			"max":[
				-1.9489556550979614,
				0.6353976726531982,
				1.0320242643356323
			],
			"min":[
				-2.408172607421875,
				0.4327993094921112,
				-1.0277715921401978
			],
			"type":"VEC3"
		},
		{
			"bufferView":7,
			"componentType":5126,
			"count":1411,
			"type":"VEC3"
		},
		{
			"bufferView":8,
			"componentType":5126,
			"count":1411,
			"type":"VEC2"
		},
		{
			"bufferView":9,
			"componentType":5123,
			"count":6498,
			"type":"SCALAR"
		},
		{
			"bufferView":10,
			"componentType":5126,
			"count":15,
			"max":[
				-0.32424449920654297,
				0.9770511388778687,
				-1.1546592712402344
			],
			"min":[
				-0.43150433897972107,
				0.8340811729431152,
				-1.3292571306228638
			],
			"type":"VEC3"
		},
		{
			"bufferView":11,
			"componentType":5126,
			"count":15,
			"type":"VEC3"
		},
		{
			"bufferView":12,
			"componentType":5126,
			"count":15,
			"type":"VEC2"
		},
		{
			"bufferView":13,
			"componentType":5123,
			"count":39,
			"type":"SCALAR"
		},
		{
			"bufferView":14,
			"componentType":5126,
			"count":11,
			"max":[
				-0.323860764503479,
				0.9770511388778687,
				1.3253358602523804
			],
			"min":[
				-0.4290271997451782,
				0.8348102569580078,
				1.1555825471878052
			],
			"type":"VEC3"
		},
		{
			"bufferView":15,
			"componentType":5126,
			"count":11,
			"type":"VEC3"
		},
		{
			"bufferView":16,
			"componentType":5126,
			"count":11,
			"type":"VEC2"
		},
		{
			"bufferView":17,
			"componentType":5123,
			"count":27,
			"type":"SCALAR"
		},
		{
			"bufferView":18,
			"componentType":5126,
			"count":4278,
			"max":[
				2.7409961223602295,
				1.138865351676941,
				1.3363279104232788
			],
			"min":[
				-2.6876015663146973,
				-0.037555038928985596,
				-1.340014934539795
			],
			"type":"VEC3"
		},
		{
			"bufferView":19,
			"componentType":5126,
			"count":4278,
			"type":"VEC3"
		},
		{
			"bufferView":20,
			"componentType":5126,
			"count":4278,
			"type":"VEC2"
		},
		{
			"bufferView":21,
			"componentType":5123,
			"count":12099,
			"type":"SCALAR"
		},
		{
			"bufferView":22,
			"componentType":5126,
			"count":6594,
			"max":[
				0.5968701839447021,
				1.1896016597747803,
				1.080143690109253
			],
			"min":[
				-1.6783560514450073,
				0.02249842882156372,
				-1.0804526805877686
			],
			"type":"VEC3"
		},
		{
			"bufferView":23,
			"componentType":5126,
			"count":6594,
			"type":"VEC3"
		},
		{
			"bufferView":24,
			"componentType":5126,
			"count":6594,
			"type":"VEC2"
		},
		{
			"bufferView":25,
			"componentType":5123,
			"count":16908,
			"type":"SCALAR"
		},
		{
			"bufferView":26,
			"componentType":5126,
			"count":174,
			"max":[
				2.51754093170166,
				0.6556000709533691,
				1.2020374536514282
			],
			"min":[
				-2.515157699584961,
				-0.006934255361557007,
				-1.2041383981704712
			],
			"type":"VEC3"
		},
		{
			"bufferView":27,
			"componentType":5126,
			"count":174,
			"type":"VEC3"
		},
		{
			"bufferView":28,
			"componentType":5126,
			"count":174,
			"type":"VEC2"
		},
		{
			"bufferView":29,
			"componentType":5123,
			"count":390,
			"type":"SCALAR"
		},
		{
			"bufferView":30,
			"componentType":5126,
			"count":4440,
			"max":[
				2.5898385047912598,
				1.2437992095947266,
				1.217045783996582
			],
			"min":[
				-2.6141419410705566,
				-0.037183940410614014,
				-1.2198187112808228
			],
			"type":"VEC3"
		},
		{
			"bufferView":31,
			"componentType":5126,
			"count":4440,
			"type":"VEC3"
		},
		{
			"bufferView":32,
			"componentType":5126,
			"count":4440,
			"type":"VEC2"
		},
		{
			"bufferView":33,
			"componentType":5123,
			"count":12357,
			"type":"SCALAR"
		},
		{
			"bufferView":34,
			"componentType":5126,
			"count":136,
			"max":[
				2.449709177017212,
				0.7917962074279785,
				1.0443074703216553
			],
			"min":[
				2.1582064628601074,
				0.6392842531204224,
				-1.0492160320281982
			],
			"type":"VEC3"
		},
		{
			"bufferView":35,
			"componentType":5126,
			"count":136,
			"type":"VEC3"
		},
		{
			"bufferView":36,
			"componentType":5126,
			"count":136,
			"type":"VEC2"
		},
		{
			"bufferView":37,
			"componentType":5123,
			"count":408,
			"type":"SCALAR"
		}
	],
	"bufferViews":[
		{
			"buffer":0,
			"byteLength":24324,
			"byteOffset":0,
			"target":34962
		},
		{
			"buffer":0,
			"byteLength":24324,
			"byteOffset":24324,
			"target":34962
		},
		{
			"buffer":0,
			"byteLength":16216,
			"byteOffset":48648,
			"target":34962
		},
		{
			"buffer":0,
			"byteLength":24324,
			"byteOffset":64864,
			"target":34962
		},
		{
			"buffer":0,
			"byteLength":16216,
			"byteOffset":89188,
			"target":34962
		},
		{
			"buffer":0,
			"byteLength":14898,
			"byteOffset":105404,
			"target":34963
		},
		{
			"buffer":0,
			"byteLength":16932,
			"byteOffset":120304,
			"target":34962
		},
		{
			"buffer":0,
			"byteLength":16932,
			"byteOffset":137236,
			"target":34962
		},
		{
			"buffer":0,
			"byteLength":11288,
			"byteOffset":154168,
			"target":34962
		},
		{
			"buffer":0,
			"byteLength":12996,
			"byteOffset":165456,
			"target":34963
		},
		{
			"buffer":0,
			"byteLength":180,
			"byteOffset":178452,
			"target":34962
		},
		{
			"buffer":0,
			"byteLength":180,
			"byteOffset":178632,
			"target":34962
		},
		{
			"buffer":0,
			"byteLength":120,
			"byteOffset":178812,
			"target":34962
		},
		{
			"buffer":0,
			"byteLength":78,
			"byteOffset":178932,
			"target":34963
		},
		{
			"buffer":0,
			"byteLength":132,
			"byteOffset":179012,
			"target":34962
		},
		{
			"buffer":0,
			"byteLength":132,
			"byteOffset":179144,
			"target":34962
		},
		{
			"buffer":0,
			"byteLength":88,
			"byteOffset":179276,
			"target":34962
		},
		{
			"buffer":0,
			"byteLength":54,
			"byteOffset":179364,
			"target":34963
		},
		{
			"buffer":0,
			"byteLength":51336,
			"byteOffset":179420,
			"target":34962
		},
		{
			"buffer":0,
			"byteLength":51336,
			"byteOffset":230756,
			"target":34962
		},
		{
			"buffer":0,
			"byteLength":34224,
			"byteOffset":282092,
			"target":34962
		},
		{
			"buffer":0,
			"byteLength":24198,
			"byteOffset":316316,
			"target":34963
		},
		{
			"buffer":0,
			"byteLength":79128,
			"byteOffset":340516,
			"target":34962
		},
		{
			"buffer":0,
			"byteLength":79128,
			"byteOffset":419644,
			"target":34962
		},
		{
			"buffer":0,
			"byteLength":52752,
			"byteOffset":498772,
			"target":34962
		},
		{
			"buffer":0,
			"byteLength":33816,
			"byteOffset":551524,
			"target":34963
		},
		{
			"buffer":0,
			"byteLength":2088,
			"byteOffset":585340,
			"target":34962
		},
		{
			"buffer":0,
			"byteLength":2088,
			"byteOffset":587428,
			"target":34962
		},
		{
			"buffer":0,
			"byteLength":1392,
			"byteOffset":589516,
			"target":34962
		},
		{
			"buffer":0,
			"byteLength":780,
			"byteOffset":590908,
			"target":34963
		},
		{
			"buffer":0,
			"byteLength":53280,
			"byteOffset":591688,
			"target":34962
		},
		{
			"buffer":0,
			"byteLength":53280,
			"byteOffset":644968,
			"target":34962
		},
		{
			"buffer":0,
			"byteLength":35520,
			"byteOffset":698248,
			"target":34962
		},
		{
			"buffer":0,
			"byteLength":24714,
			"byteOffset":733768,
			"target":34963
		},
		{
			"buffer":0,
			"byteLength":1632,
			"byteOffset":758484,
			"target":34962
		},
		{
			"buffer":0,
			"byteLength":1632,
			"byteOffset":760116,
			"target":34962
		},
		{
			"buffer":0,
			"byteLength":1088,
			"byteOffset":761748,
			"target":34962
		},
		{
			"buffer":0,
			"byteLength":816,
			"byteOffset":762836,
			"target":34963
		}
	],
	"samplers":[
		{
			"magFilter":9729,
			"minFilter":9987
		}
	],
	"buffers":[
		{
			"byteLength":763652,
			"uri":"scene_low.bin"
		}
	]
}
