{
	"asset":{
		"generator":"Khronos glTF Blender I/O v4.5.48",
		"version":"2.0"
	},
	"extensionsUsed":[
		"KHR_materials_specular",
		"KHR_materials_ior"
	],
	"scene":0,
	"scenes":[
		{
			"name":"Scene",
			"nodes":[
				0
			]
		}
	],
	"nodes":[
		{
			"mesh":0,
			"name":"House58_Atlas_0",
			"rotation":[
				-0.7071068286895752,
				0,
				0,
				0.7071068286895752
			],
			"translation":[
				-78.00028991699219,
				0,
				4.999756813049316
			]
		}
	],
	"materials":[
		{
			"doubleSided":true,
			"extensions":{
				"KHR_materials_specular":{
					"specularColorFactor":[
						0.013807804323732853,
						0.002311880700290203,
						0.0
					]
				},
				"KHR_materials_ior":{
					"ior":1000
				}
			},
			"name":"Atlas",
			"normalTexture":{
				"index":0
			},
			"occlusionTexture":{
				"index":1
			},
			"pbrMetallicRoughness":{
				"baseColorTexture":{
					"index":2
				},
				"metallicFactor":0,
				"roughnessFactor":0.6402386426925659
			}
		}
	],
	"meshes":[
		{
			"name":"House58_Atlas_0",
			"primitives":[
				{
					"attributes":{
						"POSITION":0,
						"NORMAL":1,
						"TEXCOORD_0":2
					},
					"indices":3,
					"material":0
				}
			]
		}
	],
	"textures":[
		{
			"sampler":0,
			"source":0
		},
		{
			"sampler":0,
			"source":1
		},
		{
			"sampler":0,
			"source":2
		}
	],
	"images":[
		{
			"mimeType":"image/png",
			"name":"Atlas_normal.png",
			"uri":"../../../../../../../house-biblio/textures/Atlas_normal.png"
		},
		{
			"mimeType":"image/png",
			"name":"Atlas_occlusion.png",
			"uri":"../../../../../../../house-biblio/textures/Atlas_occlusion.png"
		},
		{
			"mimeType":"image/png",
			"name":"Atlas_diffuse.png",
			"uri":"../../../../../../../house-biblio/textures/Atlas_diffuse.png"
		}
	],
	"accessors":[
		{
			"bufferView":0,
			"componentType":5126,
			"count":1291,
			"max":[
				5.505191802978516,
				4.377696990966797,
				9.871981620788574
			],
			"min":[
				-5.505199432373047,
				-4.3776936531066895,
				-6.9141387939453125e-06
			],
			"type":"VEC3"
		},
		{
			"bufferView":1,
			"componentType":5126,
			"count":1291,
			"type":"VEC3"
		},
		{
			"bufferView":2,
			"componentType":5126,
			"count":1291,
			"type":"VEC2"
		},
		{
			"bufferView":3,
			"componentType":5123,
			"count":1932,
			"type":"SCALAR"
		}
	],
	"bufferViews":[
		{
			"buffer":0,
			"byteLength":15492,
			"byteOffset":0,
			"target":34962
		},
		{
			"buffer":0,
			"byteLength":15492,
			"byteOffset":15492,
			"target":34962
		},
		{
			"buffer":0,
			"byteLength":10328,
			"byteOffset":30984,
			"target":34962
		},
		{
			"buffer":0,
			"byteLength":3864,
			"byteOffset":41312,
			"target":34963
		}
	],
	"samplers":[
		{
			"magFilter":9729,
			"minFilter":9987
		}
	],
	"buffers":[
		{
			"byteLength":45176,
			"uri":"scene.bin"
		}
	]
}
