{
	"asset":{
		"generator":"Khronos glTF Blender I/O v4.5.48",
		"version":"2.0"
	},
	"extensionsUsed":[
		"KHR_materials_specular",
		"KHR_materials_ior"
	],
	"scene":0,
	"scenes":[
		{
			"name":"Scene",
			"nodes":[
				0
			]
		}
	],
	"nodes":[
		{
			"mesh":0,
			"name":"House46_Atlas_0",
			"rotation":[
				-0.70710688829422,
				0,
				0,
				0.7071066498756409
			],
			"translation":[
				-95.06776428222656,
				0,
				4.999817848205566
			]
		}
	],
	"materials":[
		{
			"doubleSided":true,
			"extensions":{
				"KHR_materials_specular":{
					"specularColorFactor":[
						0.013807804323732853,
						0.002311880700290203,
						0.0
					]
				},
				"KHR_materials_ior":{
					"ior":1000
				}
			},
			"name":"Atlas.006",
			"normalTexture":{
				"index":0
			},
			"occlusionTexture":{
				"index":1
			},
			"pbrMetallicRoughness":{
				"baseColorTexture":{
					"index":2
				},
				"metallicFactor":0,
				"roughnessFactor":0.6402386426925659
			}
		}
	],
	"meshes":[
		{
			"name":"House46_Atlas_0",
			"primitives":[
				{
					"attributes":{
						"POSITION":0,
						"NORMAL":1,
						"TEXCOORD_0":2
					},
					"indices":3,
					"material":0
				}
			]
		}
	],
	"textures":[
		{
			"sampler":0,
			"source":0
		},
		{
			"sampler":0,
			"source":1
		},
		{
			"sampler":0,
			"source":2
		}
	],
	"images":[
		{
			"mimeType":"image/png",
			"name":"Atlas_normal",
			"uri":"../../town_textures/textures/Atlas_normal.png"
		},
		{
			"mimeType":"image/png",
			"name":"Atlas_occlusion",
			"uri":"../../town_textures/textures/Atlas_occlusion.png"
		},
		{
			"mimeType":"image/png",
			"name":"Atlas_diffuse",
			"uri":"../../town_textures/textures/Atlas_diffuse.png"
		}
	],
	"accessors":[
		{
			"bufferView":0,
			"componentType":5126,
			"count":1294,
			"max":[
				5.505184173583984,
				4.377696990966797,
				9.871981620788574
			],
			"min":[
				-5.505199432373047,
				-4.377689838409424,
				-6.318092346191406e-06
			],
			"type":"VEC3"
		},
		{
			"bufferView":1,
			"componentType":5126,
			"count":1294,
			"type":"VEC3"
		},
		{
			"bufferView":2,
			"componentType":5126,
			"count":1294,
			"type":"VEC2"
		},
		{
			"bufferView":3,
			"componentType":5123,
			"count":1935,
			"type":"SCALAR"
		}
	],
	"bufferViews":[
		{
			"buffer":0,
			"byteLength":15528,
			"byteOffset":0,
			"target":34962
		},
		{
			"buffer":0,
			"byteLength":15528,
			"byteOffset":15528,
			"target":34962
		},
		{
			"buffer":0,
			"byteLength":10352,
			"byteOffset":31056,
			"target":34962
		},
		{
			"buffer":0,
			"byteLength":3870,
			"byteOffset":41408,
			"target":34963
		}
	],
	"samplers":[
		{
			"magFilter":9729,
			"minFilter":9987
		}
	],
	"buffers":[
		{
			"byteLength":45280,
			"uri":"scene.bin"
		}
	]
}
