{
	"asset":{
		"generator":"Khronos glTF Blender I/O v4.3.47",
		"version":"2.0"
	},
	"extensionsUsed":[
		"KHR_materials_specular",
		"KHR_materials_ior"
	],
	"scene":0,
	"scenes":[
		{
			"name":"Scene",
			"nodes":[
				0,
				1,
				2,
				3,
				4,
				7,
				8,
				9,
				10,
				11
			]
		}
	],
	"nodes":[
		{
			"name":"Ctrl_three_bottom"
		},
		{
			"name":"Parent",
			"rotation":[
				0,
				0.6285773515701294,
				0,
				0.7777470946311951
			],
			"translation":[
				0,
				4.046740531921387,
				0
			]
		},
		{
			"name":"Contrl_Direction",
			"rotation":[
				0.055096760392189026,
				0,
				0,
				0.998481035232544
			],
			"scale":[
				2.157118797302246,
				1.5401040315628052,
				1.5401040315628052
			],
			"translation":[
				0.0714840292930603,
				6.083895683288574,
				-5.1185808181762695
			]
		},
		{
			"name":"Contrl_MoveRot",
			"rotation":[
				0.020502083003520966,
				-0.7111375331878662,
				-0.041190918534994125,
				0.7015457153320312
			],
			"scale":[
				1.4116730690002441,
				1.7296696901321411,
				1.976521372795105
			],
			"translation":[
				-0.1950392723083496,
				25.946765899658203,
				2.656250238418579
			]
		},
		{
			"mesh":0,
			"name":"For_Indirect_Baking",
			"scale":[
				1.4483237266540527,
				0.9673470258712769,
				1.0442250967025757
			],
			"translation":[
				-0.12798234820365906,
				-0.4321998059749603,
				0.6061805486679077
			]
		},
		{
			"name":"Irrad_Vol_01",
			"scale":[
				12.124724388122559,
				2.3553991317749023,
				5.010143280029297
			],
			"translation":[
				0,
				2.311488628387451,
				0
			]
		},
		{
			"name":"ReflectionCube_01",
			"scale":[
				6.13040018081665,
				1.757090449333191,
				2.627701759338379
			],
			"translation":[
				0,
				2.473454236984253,
				0
			]
		},
		{
			"children":[
				5,
				6
			],
			"mesh":1,
			"name":"Backdrop_01",
			"scale":[
				1.7820042371749878,
				3.2237203121185303,
				3.2237203121185303
			],
			"translation":[
				0.01355954259634018,
				-1.5750527381896973e-05,
				-0.10244488716125488
			]
		},
		{
			"name":"Empty",
			"scale":[
				12.6859769821167,
				12.6859769821167,
				12.6859769821167
			]
		},
		{
			"mesh":2,
			"name":"Bridge",
			"scale":[
				0.11871689558029175,
				0.11871689558029175,
				0.11871689558029175
			]
		},
		{
			"mesh":3,
			"name":"Left_Pillar",
			"scale":[
				0.7995796799659729,
				1,
				1
			]
		},
		{
			"mesh":4,
			"name":"Right_Pillar",
			"scale":[
				0.7995796799659729,
				1,
				1
			]
		}
	],
	"animations":[
		{
			"channels":[
				{
					"sampler":0,
					"target":{
						"node":8,
						"path":"rotation"
					}
				}
			],
			"name":"EmptyAction.001",
			"samplers":[
				{
					"input":36,
					"interpolation":"LINEAR",
					"output":37
				}
			]
		}
	],
	"materials":[
		{
			"doubleSided":true,
			"name":"IndirectBaking",
			"pbrMetallicRoughness":{
				"baseColorFactor":[
					0.5224171280860901,
					0.5224171280860901,
					0.5224171280860901,
					1
				],
				"metallicFactor":0,
				"roughnessFactor":0.5
			}
		},
		{
			"doubleSided":true,
			"extensions":{
				"KHR_materials_specular":{
					"specularFactor":0.2799999713897705
				},
				"KHR_materials_ior":{
					"ior":1.4500000476837158
				}
			},
			"name":"Material.002",
			"pbrMetallicRoughness":{
				"baseColorFactor":[
					0,
					0,
					0,
					1
				],
				"metallicFactor":0.1733333319425583,
				"roughnessFactor":0.846666693687439
			}
		},
		{
			"doubleSided":true,
			"name":"rock_wall",
			"normalTexture":{
				"index":0
			},
			"pbrMetallicRoughness":{
				"baseColorTexture":{
					"index":1
				},
				"metallicFactor":0,
				"metallicRoughnessTexture":{
					"index":2
				}
			}
		},
		{
			"doubleSided":true,
			"extensions":{
				"KHR_materials_specular":{
					"specularFactor":0
				},
				"KHR_materials_ior":{
					"ior":1.4500000476837158
				}
			},
			"name":"Hole",
			"pbrMetallicRoughness":{
				"baseColorFactor":[
					0,
					0,
					0,
					1
				],
				"metallicFactor":0,
				"roughnessFactor":0.5
			}
		},
		{
			"doubleSided":true,
			"name":"patterned_cobblestone",
			"pbrMetallicRoughness":{
				"baseColorTexture":{
					"index":3
				},
				"metallicFactor":0,
				"metallicRoughnessTexture":{
					"index":4
				}
			}
		}
	],
	"meshes":[
		{
			"name":"Cube.002",
			"primitives":[
				{
					"attributes":{
						"POSITION":0,
						"NORMAL":1,
						"TEXCOORD_0":2
					},
					"indices":3,
					"material":0
				}
			]
		},
		{
			"name":"Backdrop_01",
			"primitives":[
				{
					"attributes":{
						"POSITION":4,
						"NORMAL":5,
						"TEXCOORD_0":6
					},
					"indices":7,
					"material":1
				}
			]
		},
		{
			"name":"Cube.007",
			"primitives":[
				{
					"attributes":{
						"POSITION":8,
						"NORMAL":9,
						"TEXCOORD_0":10
					},
					"indices":11,
					"material":2
				},
				{
					"attributes":{
						"POSITION":12,
						"NORMAL":13,
						"TEXCOORD_0":14
					},
					"indices":15,
					"material":3
				},
				{
					"attributes":{
						"POSITION":16,
						"NORMAL":17,
						"TEXCOORD_0":18
					},
					"indices":19,
					"material":4
				}
			]
		},
		{
			"name":"Cube.005",
			"primitives":[
				{
					"attributes":{
						"POSITION":20,
						"NORMAL":21,
						"TEXCOORD_0":22
					},
					"indices":23,
					"material":2
				},
				{
					"attributes":{
						"POSITION":24,
						"NORMAL":25,
						"TEXCOORD_0":26
					},
					"indices":27,
					"material":4
				}
			]
		},
		{
			"name":"Cube.006",
			"primitives":[
				{
					"attributes":{
						"POSITION":28,
						"NORMAL":29,
						"TEXCOORD_0":30
					},
					"indices":31,
					"material":2
				},
				{
					"attributes":{
						"POSITION":32,
						"NORMAL":33,
						"TEXCOORD_0":34
					},
					"indices":35,
					"material":4
				}
			]
		}
	],
	"textures":[
		{
			"sampler":0,
			"source":0
		},
		{
			"sampler":0,
			"source":1
		},
		{
			"sampler":0,
			"source":2
		},
		{
			"sampler":0,
			"source":3
		},
		{
			"sampler":0,
			"source":4
		}
	],
	"images":[
		{
			"mimeType":"image/png",
			"name":"rock_wall_08_nor_gl_2k",
			"uri":"textures/rock_wall_08_nor_gl_2k.png"
		},
		{
			"mimeType":"image/jpeg",
			"name":"rock_wall_08_diff_2k",
			"uri":"textures/rock_wall_08_diff_2k.jpg"
		},
		{
			"mimeType":"image/png",
			"name":"rock_wall_08_rough_2k",
			"uri":"textures/rock_wall_08_rough_2k.png"
		},
		{
			"mimeType":"image/jpeg",
			"name":"patterned_cobblestone_diff_2k",
			"uri":"textures/patterned_cobblestone_diff_2k.jpg"
		},
		{
			"mimeType":"image/png",
			"name":"patterned_cobblestone_rough_2k",
			"uri":"textures/patterned_cobblestone_rough_2k.png"
		}
	],
	"accessors":[
		{
			"bufferView":0,
			"componentType":5126,
			"count":40,
			"max":[
				15.324270248413086,
				30.2642765045166,
				16.760560989379883
			],
			"min":[
				-15.324270248413086,
				0,
				-16.760560989379883
			],
			"type":"VEC3"
		},
		{
			"bufferView":1,
			"componentType":5126,
			"count":40,
			"type":"VEC3"
		},
		{
			"bufferView":2,
			"componentType":5126,
			"count":40,
			"type":"VEC2"
		},
		{
			"bufferView":3,
			"componentType":5123,
			"count":60,
			"type":"SCALAR"
		},
		{
			"bufferView":4,
			"componentType":5126,
			"count":32,
			"max":[
				12.089624404907227,
				15.856939315795898,
				6.425106525421143
			],
			"min":[
				-12.53615951538086,
				4.885823273070855e-06,
				-4.977020263671875
			],
			"type":"VEC3"
		},
		{
			"bufferView":5,
			"componentType":5126,
			"count":32,
			"type":"VEC3"
		},
		{
			"bufferView":6,
			"componentType":5126,
			"count":32,
			"type":"VEC2"
		},
		{
			"bufferView":7,
			"componentType":5123,
			"count":72,
			"type":"SCALAR"
		},
		{
			"bufferView":8,
			"componentType":5126,
			"count":8632,
			"max":[
				20.4905948638916,
				25.733469009399414,
				14.272231101989746
			],
			"min":[
				-20.4905948638916,
				3.3159351348876953,
				-14.272231101989746
			],
			"type":"VEC3"
		},
		{
			"bufferView":9,
			"componentType":5126,
			"count":8632,
			"type":"VEC3"
		},
		{
			"bufferView":10,
			"componentType":5126,
			"count":8632,
			"type":"VEC2"
		},
		{
			"bufferView":11,
			"componentType":5123,
			"count":17904,
			"type":"SCALAR"
		},
		{
			"bufferView":12,
			"componentType":5126,
			"count":16,
			"max":[
				16.131961822509766,
				18.72015380859375,
				12.635103225708008
			],
			"min":[
				-16.131961822509766,
				17.811655044555664,
				-12.635103225708008
			],
			"type":"VEC3"
		},
		{
			"bufferView":13,
			"componentType":5126,
			"count":16,
			"type":"VEC3"
		},
		{
			"bufferView":14,
			"componentType":5126,
			"count":16,
			"type":"VEC2"
		},
		{
			"bufferView":15,
			"componentType":5123,
			"count":24,
			"type":"SCALAR"
		},
		{
			"bufferView":16,
			"componentType":5126,
			"count":15,
			"max":[
				20.4905948638916,
				18.697431564331055,
				5.65523624420166
			],
			"min":[
				-20.4905948638916,
				18.697431564331055,
				-5.65523624420166
			],
			"type":"VEC3"
		},
		{
			"bufferView":17,
			"componentType":5126,
			"count":15,
			"type":"VEC3"
		},
		{
			"bufferView":18,
			"componentType":5126,
			"count":15,
			"type":"VEC2"
		},
		{
			"bufferView":19,
			"componentType":5123,
			"count":48,
			"type":"SCALAR"
		},
		{
			"bufferView":20,
			"componentType":5126,
			"count":1540,
			"max":[
				-2.9090378284454346,
				3.0544216632843018,
				2.2017290592193604
			],
			"min":[
				-4.333106994628906,
				-0.005051910877227783,
				-2.2017290592193604
			],
			"type":"VEC3"
		},
		{
			"bufferView":21,
			"componentType":5126,
			"count":1540,
			"type":"VEC3"
		},
		{
			"bufferView":22,
			"componentType":5126,
			"count":1540,
			"type":"VEC2"
		},
		{
			"bufferView":23,
			"componentType":5123,
			"count":3012,
			"type":"SCALAR"
		},
		{
			"bufferView":24,
			"componentType":5126,
			"count":10,
			"max":[
				-3.0126662254333496,
				2.2198193073272705,
				0.6713719964027405
			],
			"min":[
				-4.254210948944092,
				2.219700813293457,
				-0.6713719964027405
			],
			"type":"VEC3"
		},
		{
			"bufferView":25,
			"componentType":5126,
			"count":10,
			"type":"VEC3"
		},
		{
			"bufferView":26,
			"componentType":5126,
			"count":10,
			"type":"VEC2"
		},
		{
			"bufferView":27,
			"componentType":5123,
			"count":24,
			"type":"SCALAR"
		},
		{
			"bufferView":28,
			"componentType":5126,
			"count":1540,
			"max":[
				4.333106994628906,
				3.0544216632843018,
				2.2017290592193604
			],
			"min":[
				2.9090378284454346,
				-0.005051910877227783,
				-2.2017290592193604
			],
			"type":"VEC3"
		},
		{
			"bufferView":29,
			"componentType":5126,
			"count":1540,
			"type":"VEC3"
		},
		{
			"bufferView":30,
			"componentType":5126,
			"count":1540,
			"type":"VEC2"
		},
		{
			"bufferView":31,
			"componentType":5123,
			"count":3012,
			"type":"SCALAR"
		},
		{
			"bufferView":32,
			"componentType":5126,
			"count":10,
			"max":[
				4.254210948944092,
				2.2198193073272705,
				0.6713719964027405
			],
			"min":[
				3.0126662254333496,
				2.219700813293457,
				-0.6713719964027405
			],
			"type":"VEC3"
		},
		{
			"bufferView":33,
			"componentType":5126,
			"count":10,
			"type":"VEC3"
		},
		{
			"bufferView":34,
			"componentType":5126,
			"count":10,
			"type":"VEC2"
		},
		{
			"bufferView":35,
			"componentType":5123,
			"count":24,
			"type":"SCALAR"
		},
		{
			"bufferView":36,
			"componentType":5126,
			"count":61,
			"max":[
				2.5
			],
			"min":[
				0
			],
			"type":"SCALAR"
		},
		{
			"bufferView":37,
			"componentType":5126,
			"count":61,
			"type":"VEC4"
		}
	],
	"bufferViews":[
		{
			"buffer":0,
			"byteLength":480,
			"byteOffset":0,
			"target":34962
		},
		{
			"buffer":0,
			"byteLength":480,
			"byteOffset":480,
			"target":34962
		},
		{
			"buffer":0,
			"byteLength":320,
			"byteOffset":960,
			"target":34962
		},
		{
			"buffer":0,
			"byteLength":120,
			"byteOffset":1280,
			"target":34963
		},
		{
			"buffer":0,
			"byteLength":384,
			"byteOffset":1400,
			"target":34962
		},
		{
			"buffer":0,
			"byteLength":384,
			"byteOffset":1784,
			"target":34962
		},
		{
			"buffer":0,
			"byteLength":256,
			"byteOffset":2168,
			"target":34962
		},
		{
			"buffer":0,
			"byteLength":144,
			"byteOffset":2424,
			"target":34963
		},
		{
			"buffer":0,
			"byteLength":103584,
			"byteOffset":2568,
			"target":34962
		},
		{
			"buffer":0,
			"byteLength":103584,
			"byteOffset":106152,
			"target":34962
		},
		{
			"buffer":0,
			"byteLength":69056,
			"byteOffset":209736,
			"target":34962
		},
		{
			"buffer":0,
			"byteLength":35808,
			"byteOffset":278792,
			"target":34963
		},
		{
			"buffer":0,
			"byteLength":192,
			"byteOffset":314600,
			"target":34962
		},
		{
			"buffer":0,
			"byteLength":192,
			"byteOffset":314792,
			"target":34962
		},
		{
			"buffer":0,
			"byteLength":128,
			"byteOffset":314984,
			"target":34962
		},
		{
			"buffer":0,
			"byteLength":48,
			"byteOffset":315112,
			"target":34963
		},
		{
			"buffer":0,
			"byteLength":180,
			"byteOffset":315160,
			"target":34962
		},
		{
			"buffer":0,
			"byteLength":180,
			"byteOffset":315340,
			"target":34962
		},
		{
			"buffer":0,
			"byteLength":120,
			"byteOffset":315520,
			"target":34962
		},
		{
			"buffer":0,
			"byteLength":96,
			"byteOffset":315640,
			"target":34963
		},
		{
			"buffer":0,
			"byteLength":18480,
			"byteOffset":315736,
			"target":34962
		},
		{
			"buffer":0,
			"byteLength":18480,
			"byteOffset":334216,
			"target":34962
		},
		{
			"buffer":0,
			"byteLength":12320,
			"byteOffset":352696,
			"target":34962
		},
		{
			"buffer":0,
			"byteLength":6024,
			"byteOffset":365016,
			"target":34963
		},
		{
			"buffer":0,
			"byteLength":120,
			"byteOffset":371040,
			"target":34962
		},
		{
			"buffer":0,
			"byteLength":120,
			"byteOffset":371160,
			"target":34962
		},
		{
			"buffer":0,
			"byteLength":80,
			"byteOffset":371280,
			"target":34962
		},
		{
			"buffer":0,
			"byteLength":48,
			"byteOffset":371360,
			"target":34963
		},
		{
			"buffer":0,
			"byteLength":18480,
			"byteOffset":371408,
			"target":34962
		},
		{
			"buffer":0,
			"byteLength":18480,
			"byteOffset":389888,
			"target":34962
		},
		{
			"buffer":0,
			"byteLength":12320,
			"byteOffset":408368,
			"target":34962
		},
		{
			"buffer":0,
			"byteLength":6024,
			"byteOffset":420688,
			"target":34963
		},
		{
			"buffer":0,
			"byteLength":120,
			"byteOffset":426712,
			"target":34962
		},
		{
			"buffer":0,
			"byteLength":120,
			"byteOffset":426832,
			"target":34962
		},
		{
			"buffer":0,
			"byteLength":80,
			"byteOffset":426952,
			"target":34962
		},
		{
			"buffer":0,
			"byteLength":48,
			"byteOffset":427032,
			"target":34963
		},
		{
			"buffer":0,
			"byteLength":244,
			"byteOffset":427080
		},
		{
			"buffer":0,
			"byteLength":976,
			"byteOffset":427324
		}
	],
	"samplers":[
		{
			"magFilter":9729,
			"minFilter":9987
		}
	],
	"buffers":[
		{
			"byteLength":428300,
			"uri":"StoneBridge.bin"
		}
	]
}
